M48
; DRILL file {KiCad 5.1.5} date Чт 28 мая 2020 11:21:57
; FORMAT={-:-/ absolute / metric / decimal}
; #@! TF.CreationDate,2020-05-28T11:21:57+03:00
; #@! TF.GenerationSoftware,Kicad,Pcbnew,5.1.5
FMAT,2
METRIC
T1C0.254
T2C0.350
%
G90
G05
T1
X27.67Y-32.2
X21.38Y-20.8
X22.68Y-20.8
X30.92Y-27.8
X30.27Y-27.8
X32.22Y-27.8
X19.43Y-27.8
X28.32Y-27.8
X20.73Y-32.2
X22.03Y-32.2
X27.67Y-25.2
X29.62Y-20.8
X30.92Y-32.2
X22.03Y-20.8
X28.97Y-32.2
X31.57Y-32.2
X22.68Y-27.8
X20.73Y-20.8
X19.43Y-20.8
X27.02Y-25.2
X20.73Y-27.8
X20.08Y-32.2
X31.57Y-27.8
X18.78Y-25.2
X22.68Y-32.2
X29.62Y-27.8
X30.92Y-20.8
X27.67Y-20.8
X27.02Y-32.2
X28.32Y-20.8
X19.43Y-25.2
X31.57Y-25.2
X20.08Y-25.2
X30.27Y-25.2
X23.33Y-32.2
X28.32Y-25.2
X20.73Y-25.2
X22.03Y-25.2
X18.78Y-32.2
X23.98Y-27.8
X28.32Y-32.2
X21.38Y-32.2
X32.22Y-20.8
X27.67Y-27.8
X23.33Y-20.8
X23.98Y-20.8
X29.62Y-25.2
X22.68Y-25.2
X19.43Y-32.2
X21.38Y-27.8
X23.33Y-27.8
X20.08Y-27.8
X21.38Y-25.2
X20.08Y-20.8
X30.27Y-20.8
X28.97Y-20.8
X23.33Y-25.2
X28.97Y-27.8
X30.92Y-25.2
X30.27Y-32.2
X31.57Y-20.8
X29.62Y-32.2
X22.03Y-27.8
X28.97Y-25.2
T2
X25.0Y-20.0
X25.0Y-20.5
X25.0Y-21.0
X25.0Y-21.5
X25.0Y-22.0
X25.0Y-22.5
X25.0Y-23.0
X25.0Y-23.5
X25.0Y-24.0
X25.0Y-24.5
X25.0Y-25.0
X25.0Y-25.5
X25.0Y-26.0
X25.0Y-27.0
X25.0Y-27.5
X25.0Y-28.0
X25.0Y-28.5
X25.0Y-29.0
X25.0Y-29.5
X25.0Y-30.0
X25.0Y-30.5
X25.0Y-31.0
X25.0Y-31.5
X25.0Y-32.0
X25.0Y-32.5
X25.0Y-33.0
X26.0Y-20.0
X26.0Y-20.5
X26.0Y-21.0
X26.0Y-21.5
X26.0Y-22.0
X26.0Y-22.5
X26.0Y-23.0
X26.0Y-23.5
X26.0Y-24.0
X26.0Y-24.5
X26.0Y-25.0
X26.0Y-25.5
X26.0Y-26.0
X26.0Y-27.0
X26.0Y-27.5
X26.0Y-28.0
X26.0Y-28.5
X26.0Y-29.0
X26.0Y-29.5
X26.0Y-30.0
X26.0Y-30.5
X26.0Y-31.0
X26.0Y-31.5
X26.0Y-32.0
X26.0Y-32.5
X26.0Y-33.0
T0
M30
