G04 #@! TF.GenerationSoftware,KiCad,Pcbnew,5.1.5*
G04 #@! TF.CreationDate,2020-05-28T11:24:39+03:00*
G04 #@! TF.ProjectId,hc245t-bypass-panel,68633234-3574-42d6-9279-706173732d70,rev?*
G04 #@! TF.SameCoordinates,Original*
G04 #@! TF.FileFunction,Soldermask,Top*
G04 #@! TF.FilePolarity,Negative*
%FSLAX46Y46*%
G04 Gerber Fmt 4.6, Leading zero omitted, Abs format (unit mm)*
G04 Created by KiCad (PCBNEW 5.1.5) date 2020-05-28 11:24:39*
%MOMM*%
%LPD*%
G04 APERTURE LIST*
%ADD10C,0.100000*%
G04 APERTURE END LIST*
D10*
G36*
X18829164Y-31906829D02*
G01*
X18876440Y-31921170D01*
X18876443Y-31921171D01*
X18898225Y-31932814D01*
X18920011Y-31944459D01*
X18958200Y-31975800D01*
X18958201Y-31975802D01*
X18958203Y-31975803D01*
X18989541Y-32013987D01*
X19012829Y-32057556D01*
X19012829Y-32057557D01*
X19012830Y-32057559D01*
X19027171Y-32104835D01*
X19030800Y-32141683D01*
X19030800Y-32766317D01*
X19027171Y-32803165D01*
X19012830Y-32850441D01*
X19012829Y-32850444D01*
X18989541Y-32894013D01*
X18958201Y-32932201D01*
X18920013Y-32963541D01*
X18876444Y-32986829D01*
X18876441Y-32986830D01*
X18829165Y-33001171D01*
X18780000Y-33006013D01*
X18730836Y-33001171D01*
X18683560Y-32986830D01*
X18683557Y-32986829D01*
X18639988Y-32963541D01*
X18601800Y-32932201D01*
X18570460Y-32894013D01*
X18547172Y-32850444D01*
X18547171Y-32850441D01*
X18532830Y-32803165D01*
X18529201Y-32766317D01*
X18529200Y-32141684D01*
X18532829Y-32104836D01*
X18547170Y-32057560D01*
X18547171Y-32057557D01*
X18558814Y-32035775D01*
X18570459Y-32013989D01*
X18601800Y-31975800D01*
X18601802Y-31975799D01*
X18601803Y-31975797D01*
X18639987Y-31944459D01*
X18683556Y-31921171D01*
X18683559Y-31921170D01*
X18730835Y-31906829D01*
X18780000Y-31901987D01*
X18829164Y-31906829D01*
G37*
G36*
X20129164Y-31906829D02*
G01*
X20176440Y-31921170D01*
X20176443Y-31921171D01*
X20198225Y-31932814D01*
X20220011Y-31944459D01*
X20258200Y-31975800D01*
X20258201Y-31975802D01*
X20258203Y-31975803D01*
X20289541Y-32013987D01*
X20312829Y-32057556D01*
X20312829Y-32057557D01*
X20312830Y-32057559D01*
X20327171Y-32104835D01*
X20330800Y-32141683D01*
X20330800Y-32766317D01*
X20327171Y-32803165D01*
X20312830Y-32850441D01*
X20312829Y-32850444D01*
X20289541Y-32894013D01*
X20258201Y-32932201D01*
X20220013Y-32963541D01*
X20176444Y-32986829D01*
X20176441Y-32986830D01*
X20129165Y-33001171D01*
X20080000Y-33006013D01*
X20030836Y-33001171D01*
X19983560Y-32986830D01*
X19983557Y-32986829D01*
X19939988Y-32963541D01*
X19901800Y-32932201D01*
X19870460Y-32894013D01*
X19847172Y-32850444D01*
X19847171Y-32850441D01*
X19832830Y-32803165D01*
X19829201Y-32766317D01*
X19829200Y-32141684D01*
X19832829Y-32104836D01*
X19847170Y-32057560D01*
X19847171Y-32057557D01*
X19858814Y-32035775D01*
X19870459Y-32013989D01*
X19901800Y-31975800D01*
X19901802Y-31975799D01*
X19901803Y-31975797D01*
X19939987Y-31944459D01*
X19983556Y-31921171D01*
X19983559Y-31921170D01*
X20030835Y-31906829D01*
X20080000Y-31901987D01*
X20129164Y-31906829D01*
G37*
G36*
X31619164Y-31906829D02*
G01*
X31666440Y-31921170D01*
X31666443Y-31921171D01*
X31688225Y-31932814D01*
X31710011Y-31944459D01*
X31748200Y-31975800D01*
X31748201Y-31975802D01*
X31748203Y-31975803D01*
X31779541Y-32013987D01*
X31802829Y-32057556D01*
X31802829Y-32057557D01*
X31802830Y-32057559D01*
X31817171Y-32104835D01*
X31820800Y-32141683D01*
X31820800Y-32766317D01*
X31817171Y-32803165D01*
X31802830Y-32850441D01*
X31802829Y-32850444D01*
X31779541Y-32894013D01*
X31748201Y-32932201D01*
X31710013Y-32963541D01*
X31666444Y-32986829D01*
X31666441Y-32986830D01*
X31619165Y-33001171D01*
X31570000Y-33006013D01*
X31520836Y-33001171D01*
X31473560Y-32986830D01*
X31473557Y-32986829D01*
X31429988Y-32963541D01*
X31391800Y-32932201D01*
X31360460Y-32894013D01*
X31337172Y-32850444D01*
X31337171Y-32850441D01*
X31322830Y-32803165D01*
X31319201Y-32766317D01*
X31319200Y-32141684D01*
X31322829Y-32104836D01*
X31337170Y-32057560D01*
X31337171Y-32057557D01*
X31348814Y-32035775D01*
X31360459Y-32013989D01*
X31391800Y-31975800D01*
X31391802Y-31975799D01*
X31391803Y-31975797D01*
X31429987Y-31944459D01*
X31473556Y-31921171D01*
X31473559Y-31921170D01*
X31520835Y-31906829D01*
X31570000Y-31901987D01*
X31619164Y-31906829D01*
G37*
G36*
X30969164Y-31906829D02*
G01*
X31016440Y-31921170D01*
X31016443Y-31921171D01*
X31038225Y-31932814D01*
X31060011Y-31944459D01*
X31098200Y-31975800D01*
X31098201Y-31975802D01*
X31098203Y-31975803D01*
X31129541Y-32013987D01*
X31152829Y-32057556D01*
X31152829Y-32057557D01*
X31152830Y-32057559D01*
X31167171Y-32104835D01*
X31170800Y-32141683D01*
X31170800Y-32766317D01*
X31167171Y-32803165D01*
X31152830Y-32850441D01*
X31152829Y-32850444D01*
X31129541Y-32894013D01*
X31098201Y-32932201D01*
X31060013Y-32963541D01*
X31016444Y-32986829D01*
X31016441Y-32986830D01*
X30969165Y-33001171D01*
X30920000Y-33006013D01*
X30870836Y-33001171D01*
X30823560Y-32986830D01*
X30823557Y-32986829D01*
X30779988Y-32963541D01*
X30741800Y-32932201D01*
X30710460Y-32894013D01*
X30687172Y-32850444D01*
X30687171Y-32850441D01*
X30672830Y-32803165D01*
X30669201Y-32766317D01*
X30669200Y-32141684D01*
X30672829Y-32104836D01*
X30687170Y-32057560D01*
X30687171Y-32057557D01*
X30698814Y-32035775D01*
X30710459Y-32013989D01*
X30741800Y-31975800D01*
X30741802Y-31975799D01*
X30741803Y-31975797D01*
X30779987Y-31944459D01*
X30823556Y-31921171D01*
X30823559Y-31921170D01*
X30870835Y-31906829D01*
X30920000Y-31901987D01*
X30969164Y-31906829D01*
G37*
G36*
X27069164Y-31906829D02*
G01*
X27116440Y-31921170D01*
X27116443Y-31921171D01*
X27138225Y-31932814D01*
X27160011Y-31944459D01*
X27198200Y-31975800D01*
X27198201Y-31975802D01*
X27198203Y-31975803D01*
X27229541Y-32013987D01*
X27252829Y-32057556D01*
X27252829Y-32057557D01*
X27252830Y-32057559D01*
X27267171Y-32104835D01*
X27270800Y-32141683D01*
X27270800Y-32766317D01*
X27267171Y-32803165D01*
X27252830Y-32850441D01*
X27252829Y-32850444D01*
X27229541Y-32894013D01*
X27198201Y-32932201D01*
X27160013Y-32963541D01*
X27116444Y-32986829D01*
X27116441Y-32986830D01*
X27069165Y-33001171D01*
X27020000Y-33006013D01*
X26970836Y-33001171D01*
X26923560Y-32986830D01*
X26923557Y-32986829D01*
X26879988Y-32963541D01*
X26841800Y-32932201D01*
X26810460Y-32894013D01*
X26787172Y-32850444D01*
X26787171Y-32850441D01*
X26772830Y-32803165D01*
X26769201Y-32766317D01*
X26769200Y-32141684D01*
X26772829Y-32104836D01*
X26787170Y-32057560D01*
X26787171Y-32057557D01*
X26798814Y-32035775D01*
X26810459Y-32013989D01*
X26841800Y-31975800D01*
X26841802Y-31975799D01*
X26841803Y-31975797D01*
X26879987Y-31944459D01*
X26923556Y-31921171D01*
X26923559Y-31921170D01*
X26970835Y-31906829D01*
X27020000Y-31901987D01*
X27069164Y-31906829D01*
G37*
G36*
X29019164Y-31906829D02*
G01*
X29066440Y-31921170D01*
X29066443Y-31921171D01*
X29088225Y-31932814D01*
X29110011Y-31944459D01*
X29148200Y-31975800D01*
X29148201Y-31975802D01*
X29148203Y-31975803D01*
X29179541Y-32013987D01*
X29202829Y-32057556D01*
X29202829Y-32057557D01*
X29202830Y-32057559D01*
X29217171Y-32104835D01*
X29220800Y-32141683D01*
X29220800Y-32766317D01*
X29217171Y-32803165D01*
X29202830Y-32850441D01*
X29202829Y-32850444D01*
X29179541Y-32894013D01*
X29148201Y-32932201D01*
X29110013Y-32963541D01*
X29066444Y-32986829D01*
X29066441Y-32986830D01*
X29019165Y-33001171D01*
X28970000Y-33006013D01*
X28920836Y-33001171D01*
X28873560Y-32986830D01*
X28873557Y-32986829D01*
X28829988Y-32963541D01*
X28791800Y-32932201D01*
X28760460Y-32894013D01*
X28737172Y-32850444D01*
X28737171Y-32850441D01*
X28722830Y-32803165D01*
X28719201Y-32766317D01*
X28719200Y-32141684D01*
X28722829Y-32104836D01*
X28737170Y-32057560D01*
X28737171Y-32057557D01*
X28748814Y-32035775D01*
X28760459Y-32013989D01*
X28791800Y-31975800D01*
X28791802Y-31975799D01*
X28791803Y-31975797D01*
X28829987Y-31944459D01*
X28873556Y-31921171D01*
X28873559Y-31921170D01*
X28920835Y-31906829D01*
X28970000Y-31901987D01*
X29019164Y-31906829D01*
G37*
G36*
X22079164Y-31906829D02*
G01*
X22126440Y-31921170D01*
X22126443Y-31921171D01*
X22148225Y-31932814D01*
X22170011Y-31944459D01*
X22208200Y-31975800D01*
X22208201Y-31975802D01*
X22208203Y-31975803D01*
X22239541Y-32013987D01*
X22262829Y-32057556D01*
X22262829Y-32057557D01*
X22262830Y-32057559D01*
X22277171Y-32104835D01*
X22280800Y-32141683D01*
X22280800Y-32766317D01*
X22277171Y-32803165D01*
X22262830Y-32850441D01*
X22262829Y-32850444D01*
X22239541Y-32894013D01*
X22208201Y-32932201D01*
X22170013Y-32963541D01*
X22126444Y-32986829D01*
X22126441Y-32986830D01*
X22079165Y-33001171D01*
X22030000Y-33006013D01*
X21980836Y-33001171D01*
X21933560Y-32986830D01*
X21933557Y-32986829D01*
X21889988Y-32963541D01*
X21851800Y-32932201D01*
X21820460Y-32894013D01*
X21797172Y-32850444D01*
X21797171Y-32850441D01*
X21782830Y-32803165D01*
X21779201Y-32766317D01*
X21779200Y-32141684D01*
X21782829Y-32104836D01*
X21797170Y-32057560D01*
X21797171Y-32057557D01*
X21808814Y-32035775D01*
X21820459Y-32013989D01*
X21851800Y-31975800D01*
X21851802Y-31975799D01*
X21851803Y-31975797D01*
X21889987Y-31944459D01*
X21933556Y-31921171D01*
X21933559Y-31921170D01*
X21980835Y-31906829D01*
X22030000Y-31901987D01*
X22079164Y-31906829D01*
G37*
G36*
X20779164Y-31906829D02*
G01*
X20826440Y-31921170D01*
X20826443Y-31921171D01*
X20848225Y-31932814D01*
X20870011Y-31944459D01*
X20908200Y-31975800D01*
X20908201Y-31975802D01*
X20908203Y-31975803D01*
X20939541Y-32013987D01*
X20962829Y-32057556D01*
X20962829Y-32057557D01*
X20962830Y-32057559D01*
X20977171Y-32104835D01*
X20980800Y-32141683D01*
X20980800Y-32766317D01*
X20977171Y-32803165D01*
X20962830Y-32850441D01*
X20962829Y-32850444D01*
X20939541Y-32894013D01*
X20908201Y-32932201D01*
X20870013Y-32963541D01*
X20826444Y-32986829D01*
X20826441Y-32986830D01*
X20779165Y-33001171D01*
X20730000Y-33006013D01*
X20680836Y-33001171D01*
X20633560Y-32986830D01*
X20633557Y-32986829D01*
X20589988Y-32963541D01*
X20551800Y-32932201D01*
X20520460Y-32894013D01*
X20497172Y-32850444D01*
X20497171Y-32850441D01*
X20482830Y-32803165D01*
X20479201Y-32766317D01*
X20479200Y-32141684D01*
X20482829Y-32104836D01*
X20497170Y-32057560D01*
X20497171Y-32057557D01*
X20508814Y-32035775D01*
X20520459Y-32013989D01*
X20551800Y-31975800D01*
X20551802Y-31975799D01*
X20551803Y-31975797D01*
X20589987Y-31944459D01*
X20633556Y-31921171D01*
X20633559Y-31921170D01*
X20680835Y-31906829D01*
X20730000Y-31901987D01*
X20779164Y-31906829D01*
G37*
G36*
X22729164Y-31906829D02*
G01*
X22776440Y-31921170D01*
X22776443Y-31921171D01*
X22798225Y-31932814D01*
X22820011Y-31944459D01*
X22858200Y-31975800D01*
X22858201Y-31975802D01*
X22858203Y-31975803D01*
X22889541Y-32013987D01*
X22912829Y-32057556D01*
X22912829Y-32057557D01*
X22912830Y-32057559D01*
X22927171Y-32104835D01*
X22930800Y-32141683D01*
X22930800Y-32766317D01*
X22927171Y-32803165D01*
X22912830Y-32850441D01*
X22912829Y-32850444D01*
X22889541Y-32894013D01*
X22858201Y-32932201D01*
X22820013Y-32963541D01*
X22776444Y-32986829D01*
X22776441Y-32986830D01*
X22729165Y-33001171D01*
X22680000Y-33006013D01*
X22630836Y-33001171D01*
X22583560Y-32986830D01*
X22583557Y-32986829D01*
X22539988Y-32963541D01*
X22501800Y-32932201D01*
X22470460Y-32894013D01*
X22447172Y-32850444D01*
X22447171Y-32850441D01*
X22432830Y-32803165D01*
X22429201Y-32766317D01*
X22429200Y-32141684D01*
X22432829Y-32104836D01*
X22447170Y-32057560D01*
X22447171Y-32057557D01*
X22458814Y-32035775D01*
X22470459Y-32013989D01*
X22501800Y-31975800D01*
X22501802Y-31975799D01*
X22501803Y-31975797D01*
X22539987Y-31944459D01*
X22583556Y-31921171D01*
X22583559Y-31921170D01*
X22630835Y-31906829D01*
X22680000Y-31901987D01*
X22729164Y-31906829D01*
G37*
G36*
X19479164Y-31906829D02*
G01*
X19526440Y-31921170D01*
X19526443Y-31921171D01*
X19548225Y-31932814D01*
X19570011Y-31944459D01*
X19608200Y-31975800D01*
X19608201Y-31975802D01*
X19608203Y-31975803D01*
X19639541Y-32013987D01*
X19662829Y-32057556D01*
X19662829Y-32057557D01*
X19662830Y-32057559D01*
X19677171Y-32104835D01*
X19680800Y-32141683D01*
X19680800Y-32766317D01*
X19677171Y-32803165D01*
X19662830Y-32850441D01*
X19662829Y-32850444D01*
X19639541Y-32894013D01*
X19608201Y-32932201D01*
X19570013Y-32963541D01*
X19526444Y-32986829D01*
X19526441Y-32986830D01*
X19479165Y-33001171D01*
X19430000Y-33006013D01*
X19380836Y-33001171D01*
X19333560Y-32986830D01*
X19333557Y-32986829D01*
X19289988Y-32963541D01*
X19251800Y-32932201D01*
X19220460Y-32894013D01*
X19197172Y-32850444D01*
X19197171Y-32850441D01*
X19182830Y-32803165D01*
X19179201Y-32766317D01*
X19179200Y-32141684D01*
X19182829Y-32104836D01*
X19197170Y-32057560D01*
X19197171Y-32057557D01*
X19208814Y-32035775D01*
X19220459Y-32013989D01*
X19251800Y-31975800D01*
X19251802Y-31975799D01*
X19251803Y-31975797D01*
X19289987Y-31944459D01*
X19333556Y-31921171D01*
X19333559Y-31921170D01*
X19380835Y-31906829D01*
X19430000Y-31901987D01*
X19479164Y-31906829D01*
G37*
G36*
X23379164Y-31906829D02*
G01*
X23426440Y-31921170D01*
X23426443Y-31921171D01*
X23448225Y-31932814D01*
X23470011Y-31944459D01*
X23508200Y-31975800D01*
X23508201Y-31975802D01*
X23508203Y-31975803D01*
X23539541Y-32013987D01*
X23562829Y-32057556D01*
X23562829Y-32057557D01*
X23562830Y-32057559D01*
X23577171Y-32104835D01*
X23580800Y-32141683D01*
X23580800Y-32766317D01*
X23577171Y-32803165D01*
X23562830Y-32850441D01*
X23562829Y-32850444D01*
X23539541Y-32894013D01*
X23508201Y-32932201D01*
X23470013Y-32963541D01*
X23426444Y-32986829D01*
X23426441Y-32986830D01*
X23379165Y-33001171D01*
X23330000Y-33006013D01*
X23280836Y-33001171D01*
X23233560Y-32986830D01*
X23233557Y-32986829D01*
X23189988Y-32963541D01*
X23151800Y-32932201D01*
X23120460Y-32894013D01*
X23097172Y-32850444D01*
X23097171Y-32850441D01*
X23082830Y-32803165D01*
X23079201Y-32766317D01*
X23079200Y-32141684D01*
X23082829Y-32104836D01*
X23097170Y-32057560D01*
X23097171Y-32057557D01*
X23108814Y-32035775D01*
X23120459Y-32013989D01*
X23151800Y-31975800D01*
X23151802Y-31975799D01*
X23151803Y-31975797D01*
X23189987Y-31944459D01*
X23233556Y-31921171D01*
X23233559Y-31921170D01*
X23280835Y-31906829D01*
X23330000Y-31901987D01*
X23379164Y-31906829D01*
G37*
G36*
X21429164Y-31906829D02*
G01*
X21476440Y-31921170D01*
X21476443Y-31921171D01*
X21498225Y-31932814D01*
X21520011Y-31944459D01*
X21558200Y-31975800D01*
X21558201Y-31975802D01*
X21558203Y-31975803D01*
X21589541Y-32013987D01*
X21612829Y-32057556D01*
X21612829Y-32057557D01*
X21612830Y-32057559D01*
X21627171Y-32104835D01*
X21630800Y-32141683D01*
X21630800Y-32766317D01*
X21627171Y-32803165D01*
X21612830Y-32850441D01*
X21612829Y-32850444D01*
X21589541Y-32894013D01*
X21558201Y-32932201D01*
X21520013Y-32963541D01*
X21476444Y-32986829D01*
X21476441Y-32986830D01*
X21429165Y-33001171D01*
X21380000Y-33006013D01*
X21330836Y-33001171D01*
X21283560Y-32986830D01*
X21283557Y-32986829D01*
X21239988Y-32963541D01*
X21201800Y-32932201D01*
X21170460Y-32894013D01*
X21147172Y-32850444D01*
X21147171Y-32850441D01*
X21132830Y-32803165D01*
X21129201Y-32766317D01*
X21129200Y-32141684D01*
X21132829Y-32104836D01*
X21147170Y-32057560D01*
X21147171Y-32057557D01*
X21158814Y-32035775D01*
X21170459Y-32013989D01*
X21201800Y-31975800D01*
X21201802Y-31975799D01*
X21201803Y-31975797D01*
X21239987Y-31944459D01*
X21283556Y-31921171D01*
X21283559Y-31921170D01*
X21330835Y-31906829D01*
X21380000Y-31901987D01*
X21429164Y-31906829D01*
G37*
G36*
X28369164Y-31906829D02*
G01*
X28416440Y-31921170D01*
X28416443Y-31921171D01*
X28438225Y-31932814D01*
X28460011Y-31944459D01*
X28498200Y-31975800D01*
X28498201Y-31975802D01*
X28498203Y-31975803D01*
X28529541Y-32013987D01*
X28552829Y-32057556D01*
X28552829Y-32057557D01*
X28552830Y-32057559D01*
X28567171Y-32104835D01*
X28570800Y-32141683D01*
X28570800Y-32766317D01*
X28567171Y-32803165D01*
X28552830Y-32850441D01*
X28552829Y-32850444D01*
X28529541Y-32894013D01*
X28498201Y-32932201D01*
X28460013Y-32963541D01*
X28416444Y-32986829D01*
X28416441Y-32986830D01*
X28369165Y-33001171D01*
X28320000Y-33006013D01*
X28270836Y-33001171D01*
X28223560Y-32986830D01*
X28223557Y-32986829D01*
X28179988Y-32963541D01*
X28141800Y-32932201D01*
X28110460Y-32894013D01*
X28087172Y-32850444D01*
X28087171Y-32850441D01*
X28072830Y-32803165D01*
X28069201Y-32766317D01*
X28069200Y-32141684D01*
X28072829Y-32104836D01*
X28087170Y-32057560D01*
X28087171Y-32057557D01*
X28098814Y-32035775D01*
X28110459Y-32013989D01*
X28141800Y-31975800D01*
X28141802Y-31975799D01*
X28141803Y-31975797D01*
X28179987Y-31944459D01*
X28223556Y-31921171D01*
X28223559Y-31921170D01*
X28270835Y-31906829D01*
X28320000Y-31901987D01*
X28369164Y-31906829D01*
G37*
G36*
X27719164Y-31906829D02*
G01*
X27766440Y-31921170D01*
X27766443Y-31921171D01*
X27788225Y-31932814D01*
X27810011Y-31944459D01*
X27848200Y-31975800D01*
X27848201Y-31975802D01*
X27848203Y-31975803D01*
X27879541Y-32013987D01*
X27902829Y-32057556D01*
X27902829Y-32057557D01*
X27902830Y-32057559D01*
X27917171Y-32104835D01*
X27920800Y-32141683D01*
X27920800Y-32766317D01*
X27917171Y-32803165D01*
X27902830Y-32850441D01*
X27902829Y-32850444D01*
X27879541Y-32894013D01*
X27848201Y-32932201D01*
X27810013Y-32963541D01*
X27766444Y-32986829D01*
X27766441Y-32986830D01*
X27719165Y-33001171D01*
X27670000Y-33006013D01*
X27620836Y-33001171D01*
X27573560Y-32986830D01*
X27573557Y-32986829D01*
X27529988Y-32963541D01*
X27491800Y-32932201D01*
X27460460Y-32894013D01*
X27437172Y-32850444D01*
X27437171Y-32850441D01*
X27422830Y-32803165D01*
X27419201Y-32766317D01*
X27419200Y-32141684D01*
X27422829Y-32104836D01*
X27437170Y-32057560D01*
X27437171Y-32057557D01*
X27448814Y-32035775D01*
X27460459Y-32013989D01*
X27491800Y-31975800D01*
X27491802Y-31975799D01*
X27491803Y-31975797D01*
X27529987Y-31944459D01*
X27573556Y-31921171D01*
X27573559Y-31921170D01*
X27620835Y-31906829D01*
X27670000Y-31901987D01*
X27719164Y-31906829D01*
G37*
G36*
X30319164Y-31906829D02*
G01*
X30366440Y-31921170D01*
X30366443Y-31921171D01*
X30388225Y-31932814D01*
X30410011Y-31944459D01*
X30448200Y-31975800D01*
X30448201Y-31975802D01*
X30448203Y-31975803D01*
X30479541Y-32013987D01*
X30502829Y-32057556D01*
X30502829Y-32057557D01*
X30502830Y-32057559D01*
X30517171Y-32104835D01*
X30520800Y-32141683D01*
X30520800Y-32766317D01*
X30517171Y-32803165D01*
X30502830Y-32850441D01*
X30502829Y-32850444D01*
X30479541Y-32894013D01*
X30448201Y-32932201D01*
X30410013Y-32963541D01*
X30366444Y-32986829D01*
X30366441Y-32986830D01*
X30319165Y-33001171D01*
X30270000Y-33006013D01*
X30220836Y-33001171D01*
X30173560Y-32986830D01*
X30173557Y-32986829D01*
X30129988Y-32963541D01*
X30091800Y-32932201D01*
X30060460Y-32894013D01*
X30037172Y-32850444D01*
X30037171Y-32850441D01*
X30022830Y-32803165D01*
X30019201Y-32766317D01*
X30019200Y-32141684D01*
X30022829Y-32104836D01*
X30037170Y-32057560D01*
X30037171Y-32057557D01*
X30048814Y-32035775D01*
X30060459Y-32013989D01*
X30091800Y-31975800D01*
X30091802Y-31975799D01*
X30091803Y-31975797D01*
X30129987Y-31944459D01*
X30173556Y-31921171D01*
X30173559Y-31921170D01*
X30220835Y-31906829D01*
X30270000Y-31901987D01*
X30319164Y-31906829D01*
G37*
G36*
X29669164Y-31906829D02*
G01*
X29716440Y-31921170D01*
X29716443Y-31921171D01*
X29738225Y-31932814D01*
X29760011Y-31944459D01*
X29798200Y-31975800D01*
X29798201Y-31975802D01*
X29798203Y-31975803D01*
X29829541Y-32013987D01*
X29852829Y-32057556D01*
X29852829Y-32057557D01*
X29852830Y-32057559D01*
X29867171Y-32104835D01*
X29870800Y-32141683D01*
X29870800Y-32766317D01*
X29867171Y-32803165D01*
X29852830Y-32850441D01*
X29852829Y-32850444D01*
X29829541Y-32894013D01*
X29798201Y-32932201D01*
X29760013Y-32963541D01*
X29716444Y-32986829D01*
X29716441Y-32986830D01*
X29669165Y-33001171D01*
X29620000Y-33006013D01*
X29570836Y-33001171D01*
X29523560Y-32986830D01*
X29523557Y-32986829D01*
X29479988Y-32963541D01*
X29441800Y-32932201D01*
X29410460Y-32894013D01*
X29387172Y-32850444D01*
X29387171Y-32850441D01*
X29372830Y-32803165D01*
X29369201Y-32766317D01*
X29369200Y-32141684D01*
X29372829Y-32104836D01*
X29387170Y-32057560D01*
X29387171Y-32057557D01*
X29398814Y-32035775D01*
X29410459Y-32013989D01*
X29441800Y-31975800D01*
X29441802Y-31975799D01*
X29441803Y-31975797D01*
X29479987Y-31944459D01*
X29523556Y-31921171D01*
X29523559Y-31921170D01*
X29570835Y-31906829D01*
X29620000Y-31901987D01*
X29669164Y-31906829D01*
G37*
G36*
X28369165Y-26998829D02*
G01*
X28416441Y-27013170D01*
X28416444Y-27013171D01*
X28460013Y-27036459D01*
X28498201Y-27067799D01*
X28529541Y-27105987D01*
X28552829Y-27149556D01*
X28552830Y-27149559D01*
X28567171Y-27196835D01*
X28570800Y-27233683D01*
X28570800Y-27858317D01*
X28567171Y-27895165D01*
X28552830Y-27942440D01*
X28552829Y-27942444D01*
X28529541Y-27986013D01*
X28498203Y-28024197D01*
X28498201Y-28024198D01*
X28498200Y-28024200D01*
X28460011Y-28055541D01*
X28438225Y-28067186D01*
X28416443Y-28078829D01*
X28416440Y-28078830D01*
X28369164Y-28093171D01*
X28320000Y-28098013D01*
X28270835Y-28093171D01*
X28223559Y-28078830D01*
X28223556Y-28078829D01*
X28179987Y-28055541D01*
X28141803Y-28024203D01*
X28141802Y-28024201D01*
X28141800Y-28024200D01*
X28110459Y-27986011D01*
X28087172Y-27942444D01*
X28087171Y-27942443D01*
X28087170Y-27942440D01*
X28072829Y-27895164D01*
X28069200Y-27858316D01*
X28069201Y-27233683D01*
X28072830Y-27196835D01*
X28087171Y-27149559D01*
X28087172Y-27149556D01*
X28110460Y-27105987D01*
X28141800Y-27067799D01*
X28179988Y-27036459D01*
X28223557Y-27013171D01*
X28223560Y-27013170D01*
X28270836Y-26998829D01*
X28320000Y-26993987D01*
X28369165Y-26998829D01*
G37*
G36*
X21429165Y-26998829D02*
G01*
X21476441Y-27013170D01*
X21476444Y-27013171D01*
X21520013Y-27036459D01*
X21558201Y-27067799D01*
X21589541Y-27105987D01*
X21612829Y-27149556D01*
X21612830Y-27149559D01*
X21627171Y-27196835D01*
X21630800Y-27233683D01*
X21630800Y-27858317D01*
X21627171Y-27895165D01*
X21612830Y-27942440D01*
X21612829Y-27942444D01*
X21589541Y-27986013D01*
X21558203Y-28024197D01*
X21558201Y-28024198D01*
X21558200Y-28024200D01*
X21520011Y-28055541D01*
X21498225Y-28067186D01*
X21476443Y-28078829D01*
X21476440Y-28078830D01*
X21429164Y-28093171D01*
X21380000Y-28098013D01*
X21330835Y-28093171D01*
X21283559Y-28078830D01*
X21283556Y-28078829D01*
X21239987Y-28055541D01*
X21201803Y-28024203D01*
X21201802Y-28024201D01*
X21201800Y-28024200D01*
X21170459Y-27986011D01*
X21147172Y-27942444D01*
X21147171Y-27942443D01*
X21147170Y-27942440D01*
X21132829Y-27895164D01*
X21129200Y-27858316D01*
X21129201Y-27233683D01*
X21132830Y-27196835D01*
X21147171Y-27149559D01*
X21147172Y-27149556D01*
X21170460Y-27105987D01*
X21201800Y-27067799D01*
X21239988Y-27036459D01*
X21283557Y-27013171D01*
X21283560Y-27013170D01*
X21330836Y-26998829D01*
X21380000Y-26993987D01*
X21429165Y-26998829D01*
G37*
G36*
X32269165Y-26998829D02*
G01*
X32316441Y-27013170D01*
X32316444Y-27013171D01*
X32360013Y-27036459D01*
X32398201Y-27067799D01*
X32429541Y-27105987D01*
X32452829Y-27149556D01*
X32452830Y-27149559D01*
X32467171Y-27196835D01*
X32470800Y-27233683D01*
X32470800Y-27858317D01*
X32467171Y-27895165D01*
X32452830Y-27942440D01*
X32452829Y-27942444D01*
X32429541Y-27986013D01*
X32398203Y-28024197D01*
X32398201Y-28024198D01*
X32398200Y-28024200D01*
X32360011Y-28055541D01*
X32338225Y-28067186D01*
X32316443Y-28078829D01*
X32316440Y-28078830D01*
X32269164Y-28093171D01*
X32220000Y-28098013D01*
X32170835Y-28093171D01*
X32123559Y-28078830D01*
X32123556Y-28078829D01*
X32079987Y-28055541D01*
X32041803Y-28024203D01*
X32041802Y-28024201D01*
X32041800Y-28024200D01*
X32010459Y-27986011D01*
X31987172Y-27942444D01*
X31987171Y-27942443D01*
X31987170Y-27942440D01*
X31972829Y-27895164D01*
X31969200Y-27858316D01*
X31969201Y-27233683D01*
X31972830Y-27196835D01*
X31987171Y-27149559D01*
X31987172Y-27149556D01*
X32010460Y-27105987D01*
X32041800Y-27067799D01*
X32079988Y-27036459D01*
X32123557Y-27013171D01*
X32123560Y-27013170D01*
X32170836Y-26998829D01*
X32220000Y-26993987D01*
X32269165Y-26998829D01*
G37*
G36*
X31619165Y-26998829D02*
G01*
X31666441Y-27013170D01*
X31666444Y-27013171D01*
X31710013Y-27036459D01*
X31748201Y-27067799D01*
X31779541Y-27105987D01*
X31802829Y-27149556D01*
X31802830Y-27149559D01*
X31817171Y-27196835D01*
X31820800Y-27233683D01*
X31820800Y-27858317D01*
X31817171Y-27895165D01*
X31802830Y-27942440D01*
X31802829Y-27942444D01*
X31779541Y-27986013D01*
X31748203Y-28024197D01*
X31748201Y-28024198D01*
X31748200Y-28024200D01*
X31710011Y-28055541D01*
X31688225Y-28067186D01*
X31666443Y-28078829D01*
X31666440Y-28078830D01*
X31619164Y-28093171D01*
X31570000Y-28098013D01*
X31520835Y-28093171D01*
X31473559Y-28078830D01*
X31473556Y-28078829D01*
X31429987Y-28055541D01*
X31391803Y-28024203D01*
X31391802Y-28024201D01*
X31391800Y-28024200D01*
X31360459Y-27986011D01*
X31337172Y-27942444D01*
X31337171Y-27942443D01*
X31337170Y-27942440D01*
X31322829Y-27895164D01*
X31319200Y-27858316D01*
X31319201Y-27233683D01*
X31322830Y-27196835D01*
X31337171Y-27149559D01*
X31337172Y-27149556D01*
X31360460Y-27105987D01*
X31391800Y-27067799D01*
X31429988Y-27036459D01*
X31473557Y-27013171D01*
X31473560Y-27013170D01*
X31520836Y-26998829D01*
X31570000Y-26993987D01*
X31619165Y-26998829D01*
G37*
G36*
X22079165Y-26998829D02*
G01*
X22126441Y-27013170D01*
X22126444Y-27013171D01*
X22170013Y-27036459D01*
X22208201Y-27067799D01*
X22239541Y-27105987D01*
X22262829Y-27149556D01*
X22262830Y-27149559D01*
X22277171Y-27196835D01*
X22280800Y-27233683D01*
X22280800Y-27858317D01*
X22277171Y-27895165D01*
X22262830Y-27942440D01*
X22262829Y-27942444D01*
X22239541Y-27986013D01*
X22208203Y-28024197D01*
X22208201Y-28024198D01*
X22208200Y-28024200D01*
X22170011Y-28055541D01*
X22148225Y-28067186D01*
X22126443Y-28078829D01*
X22126440Y-28078830D01*
X22079164Y-28093171D01*
X22030000Y-28098013D01*
X21980835Y-28093171D01*
X21933559Y-28078830D01*
X21933556Y-28078829D01*
X21889987Y-28055541D01*
X21851803Y-28024203D01*
X21851802Y-28024201D01*
X21851800Y-28024200D01*
X21820459Y-27986011D01*
X21797172Y-27942444D01*
X21797171Y-27942443D01*
X21797170Y-27942440D01*
X21782829Y-27895164D01*
X21779200Y-27858316D01*
X21779201Y-27233683D01*
X21782830Y-27196835D01*
X21797171Y-27149559D01*
X21797172Y-27149556D01*
X21820460Y-27105987D01*
X21851800Y-27067799D01*
X21889988Y-27036459D01*
X21933557Y-27013171D01*
X21933560Y-27013170D01*
X21980836Y-26998829D01*
X22030000Y-26993987D01*
X22079165Y-26998829D01*
G37*
G36*
X22729165Y-26998829D02*
G01*
X22776441Y-27013170D01*
X22776444Y-27013171D01*
X22820013Y-27036459D01*
X22858201Y-27067799D01*
X22889541Y-27105987D01*
X22912829Y-27149556D01*
X22912830Y-27149559D01*
X22927171Y-27196835D01*
X22930800Y-27233683D01*
X22930800Y-27858317D01*
X22927171Y-27895165D01*
X22912830Y-27942440D01*
X22912829Y-27942444D01*
X22889541Y-27986013D01*
X22858203Y-28024197D01*
X22858201Y-28024198D01*
X22858200Y-28024200D01*
X22820011Y-28055541D01*
X22798225Y-28067186D01*
X22776443Y-28078829D01*
X22776440Y-28078830D01*
X22729164Y-28093171D01*
X22680000Y-28098013D01*
X22630835Y-28093171D01*
X22583559Y-28078830D01*
X22583556Y-28078829D01*
X22539987Y-28055541D01*
X22501803Y-28024203D01*
X22501802Y-28024201D01*
X22501800Y-28024200D01*
X22470459Y-27986011D01*
X22447172Y-27942444D01*
X22447171Y-27942443D01*
X22447170Y-27942440D01*
X22432829Y-27895164D01*
X22429200Y-27858316D01*
X22429201Y-27233683D01*
X22432830Y-27196835D01*
X22447171Y-27149559D01*
X22447172Y-27149556D01*
X22470460Y-27105987D01*
X22501800Y-27067799D01*
X22539988Y-27036459D01*
X22583557Y-27013171D01*
X22583560Y-27013170D01*
X22630836Y-26998829D01*
X22680000Y-26993987D01*
X22729165Y-26998829D01*
G37*
G36*
X29019165Y-26998829D02*
G01*
X29066441Y-27013170D01*
X29066444Y-27013171D01*
X29110013Y-27036459D01*
X29148201Y-27067799D01*
X29179541Y-27105987D01*
X29202829Y-27149556D01*
X29202830Y-27149559D01*
X29217171Y-27196835D01*
X29220800Y-27233683D01*
X29220800Y-27858317D01*
X29217171Y-27895165D01*
X29202830Y-27942440D01*
X29202829Y-27942444D01*
X29179541Y-27986013D01*
X29148203Y-28024197D01*
X29148201Y-28024198D01*
X29148200Y-28024200D01*
X29110011Y-28055541D01*
X29088225Y-28067186D01*
X29066443Y-28078829D01*
X29066440Y-28078830D01*
X29019164Y-28093171D01*
X28970000Y-28098013D01*
X28920835Y-28093171D01*
X28873559Y-28078830D01*
X28873556Y-28078829D01*
X28829987Y-28055541D01*
X28791803Y-28024203D01*
X28791802Y-28024201D01*
X28791800Y-28024200D01*
X28760459Y-27986011D01*
X28737172Y-27942444D01*
X28737171Y-27942443D01*
X28737170Y-27942440D01*
X28722829Y-27895164D01*
X28719200Y-27858316D01*
X28719201Y-27233683D01*
X28722830Y-27196835D01*
X28737171Y-27149559D01*
X28737172Y-27149556D01*
X28760460Y-27105987D01*
X28791800Y-27067799D01*
X28829988Y-27036459D01*
X28873557Y-27013171D01*
X28873560Y-27013170D01*
X28920836Y-26998829D01*
X28970000Y-26993987D01*
X29019165Y-26998829D01*
G37*
G36*
X30969165Y-26998829D02*
G01*
X31016441Y-27013170D01*
X31016444Y-27013171D01*
X31060013Y-27036459D01*
X31098201Y-27067799D01*
X31129541Y-27105987D01*
X31152829Y-27149556D01*
X31152830Y-27149559D01*
X31167171Y-27196835D01*
X31170800Y-27233683D01*
X31170800Y-27858317D01*
X31167171Y-27895165D01*
X31152830Y-27942440D01*
X31152829Y-27942444D01*
X31129541Y-27986013D01*
X31098203Y-28024197D01*
X31098201Y-28024198D01*
X31098200Y-28024200D01*
X31060011Y-28055541D01*
X31038225Y-28067186D01*
X31016443Y-28078829D01*
X31016440Y-28078830D01*
X30969164Y-28093171D01*
X30920000Y-28098013D01*
X30870835Y-28093171D01*
X30823559Y-28078830D01*
X30823556Y-28078829D01*
X30779987Y-28055541D01*
X30741803Y-28024203D01*
X30741802Y-28024201D01*
X30741800Y-28024200D01*
X30710459Y-27986011D01*
X30687172Y-27942444D01*
X30687171Y-27942443D01*
X30687170Y-27942440D01*
X30672829Y-27895164D01*
X30669200Y-27858316D01*
X30669201Y-27233683D01*
X30672830Y-27196835D01*
X30687171Y-27149559D01*
X30687172Y-27149556D01*
X30710460Y-27105987D01*
X30741800Y-27067799D01*
X30779988Y-27036459D01*
X30823557Y-27013171D01*
X30823560Y-27013170D01*
X30870836Y-26998829D01*
X30920000Y-26993987D01*
X30969165Y-26998829D01*
G37*
G36*
X23379165Y-26998829D02*
G01*
X23426441Y-27013170D01*
X23426444Y-27013171D01*
X23470013Y-27036459D01*
X23508201Y-27067799D01*
X23539541Y-27105987D01*
X23562829Y-27149556D01*
X23562830Y-27149559D01*
X23577171Y-27196835D01*
X23580800Y-27233683D01*
X23580800Y-27858317D01*
X23577171Y-27895165D01*
X23562830Y-27942440D01*
X23562829Y-27942444D01*
X23539541Y-27986013D01*
X23508203Y-28024197D01*
X23508201Y-28024198D01*
X23508200Y-28024200D01*
X23470011Y-28055541D01*
X23448225Y-28067186D01*
X23426443Y-28078829D01*
X23426440Y-28078830D01*
X23379164Y-28093171D01*
X23330000Y-28098013D01*
X23280835Y-28093171D01*
X23233559Y-28078830D01*
X23233556Y-28078829D01*
X23189987Y-28055541D01*
X23151803Y-28024203D01*
X23151802Y-28024201D01*
X23151800Y-28024200D01*
X23120459Y-27986011D01*
X23097172Y-27942444D01*
X23097171Y-27942443D01*
X23097170Y-27942440D01*
X23082829Y-27895164D01*
X23079200Y-27858316D01*
X23079201Y-27233683D01*
X23082830Y-27196835D01*
X23097171Y-27149559D01*
X23097172Y-27149556D01*
X23120460Y-27105987D01*
X23151800Y-27067799D01*
X23189988Y-27036459D01*
X23233557Y-27013171D01*
X23233560Y-27013170D01*
X23280836Y-26998829D01*
X23330000Y-26993987D01*
X23379165Y-26998829D01*
G37*
G36*
X20129165Y-26998829D02*
G01*
X20176441Y-27013170D01*
X20176444Y-27013171D01*
X20220013Y-27036459D01*
X20258201Y-27067799D01*
X20289541Y-27105987D01*
X20312829Y-27149556D01*
X20312830Y-27149559D01*
X20327171Y-27196835D01*
X20330800Y-27233683D01*
X20330800Y-27858317D01*
X20327171Y-27895165D01*
X20312830Y-27942440D01*
X20312829Y-27942444D01*
X20289541Y-27986013D01*
X20258203Y-28024197D01*
X20258201Y-28024198D01*
X20258200Y-28024200D01*
X20220011Y-28055541D01*
X20198225Y-28067186D01*
X20176443Y-28078829D01*
X20176440Y-28078830D01*
X20129164Y-28093171D01*
X20080000Y-28098013D01*
X20030835Y-28093171D01*
X19983559Y-28078830D01*
X19983556Y-28078829D01*
X19939987Y-28055541D01*
X19901803Y-28024203D01*
X19901802Y-28024201D01*
X19901800Y-28024200D01*
X19870459Y-27986011D01*
X19847172Y-27942444D01*
X19847171Y-27942443D01*
X19847170Y-27942440D01*
X19832829Y-27895164D01*
X19829200Y-27858316D01*
X19829201Y-27233683D01*
X19832830Y-27196835D01*
X19847171Y-27149559D01*
X19847172Y-27149556D01*
X19870460Y-27105987D01*
X19901800Y-27067799D01*
X19939988Y-27036459D01*
X19983557Y-27013171D01*
X19983560Y-27013170D01*
X20030836Y-26998829D01*
X20080000Y-26993987D01*
X20129165Y-26998829D01*
G37*
G36*
X27719165Y-26998829D02*
G01*
X27766441Y-27013170D01*
X27766444Y-27013171D01*
X27810013Y-27036459D01*
X27848201Y-27067799D01*
X27879541Y-27105987D01*
X27902829Y-27149556D01*
X27902830Y-27149559D01*
X27917171Y-27196835D01*
X27920800Y-27233683D01*
X27920800Y-27858317D01*
X27917171Y-27895165D01*
X27902830Y-27942440D01*
X27902829Y-27942444D01*
X27879541Y-27986013D01*
X27848203Y-28024197D01*
X27848201Y-28024198D01*
X27848200Y-28024200D01*
X27810011Y-28055541D01*
X27788225Y-28067186D01*
X27766443Y-28078829D01*
X27766440Y-28078830D01*
X27719164Y-28093171D01*
X27670000Y-28098013D01*
X27620835Y-28093171D01*
X27573559Y-28078830D01*
X27573556Y-28078829D01*
X27529987Y-28055541D01*
X27491803Y-28024203D01*
X27491802Y-28024201D01*
X27491800Y-28024200D01*
X27460459Y-27986011D01*
X27437172Y-27942444D01*
X27437171Y-27942443D01*
X27437170Y-27942440D01*
X27422829Y-27895164D01*
X27419200Y-27858316D01*
X27419201Y-27233683D01*
X27422830Y-27196835D01*
X27437171Y-27149559D01*
X27437172Y-27149556D01*
X27460460Y-27105987D01*
X27491800Y-27067799D01*
X27529988Y-27036459D01*
X27573557Y-27013171D01*
X27573560Y-27013170D01*
X27620836Y-26998829D01*
X27670000Y-26993987D01*
X27719165Y-26998829D01*
G37*
G36*
X19479165Y-26998829D02*
G01*
X19526441Y-27013170D01*
X19526444Y-27013171D01*
X19570013Y-27036459D01*
X19608201Y-27067799D01*
X19639541Y-27105987D01*
X19662829Y-27149556D01*
X19662830Y-27149559D01*
X19677171Y-27196835D01*
X19680800Y-27233683D01*
X19680800Y-27858317D01*
X19677171Y-27895165D01*
X19662830Y-27942440D01*
X19662829Y-27942444D01*
X19639541Y-27986013D01*
X19608203Y-28024197D01*
X19608201Y-28024198D01*
X19608200Y-28024200D01*
X19570011Y-28055541D01*
X19548225Y-28067186D01*
X19526443Y-28078829D01*
X19526440Y-28078830D01*
X19479164Y-28093171D01*
X19430000Y-28098013D01*
X19380835Y-28093171D01*
X19333559Y-28078830D01*
X19333556Y-28078829D01*
X19289987Y-28055541D01*
X19251803Y-28024203D01*
X19251802Y-28024201D01*
X19251800Y-28024200D01*
X19220459Y-27986011D01*
X19197172Y-27942444D01*
X19197171Y-27942443D01*
X19197170Y-27942440D01*
X19182829Y-27895164D01*
X19179200Y-27858316D01*
X19179201Y-27233683D01*
X19182830Y-27196835D01*
X19197171Y-27149559D01*
X19197172Y-27149556D01*
X19220460Y-27105987D01*
X19251800Y-27067799D01*
X19289988Y-27036459D01*
X19333557Y-27013171D01*
X19333560Y-27013170D01*
X19380836Y-26998829D01*
X19430000Y-26993987D01*
X19479165Y-26998829D01*
G37*
G36*
X30319165Y-26998829D02*
G01*
X30366441Y-27013170D01*
X30366444Y-27013171D01*
X30410013Y-27036459D01*
X30448201Y-27067799D01*
X30479541Y-27105987D01*
X30502829Y-27149556D01*
X30502830Y-27149559D01*
X30517171Y-27196835D01*
X30520800Y-27233683D01*
X30520800Y-27858317D01*
X30517171Y-27895165D01*
X30502830Y-27942440D01*
X30502829Y-27942444D01*
X30479541Y-27986013D01*
X30448203Y-28024197D01*
X30448201Y-28024198D01*
X30448200Y-28024200D01*
X30410011Y-28055541D01*
X30388225Y-28067186D01*
X30366443Y-28078829D01*
X30366440Y-28078830D01*
X30319164Y-28093171D01*
X30270000Y-28098013D01*
X30220835Y-28093171D01*
X30173559Y-28078830D01*
X30173556Y-28078829D01*
X30129987Y-28055541D01*
X30091803Y-28024203D01*
X30091802Y-28024201D01*
X30091800Y-28024200D01*
X30060459Y-27986011D01*
X30037172Y-27942444D01*
X30037171Y-27942443D01*
X30037170Y-27942440D01*
X30022829Y-27895164D01*
X30019200Y-27858316D01*
X30019201Y-27233683D01*
X30022830Y-27196835D01*
X30037171Y-27149559D01*
X30037172Y-27149556D01*
X30060460Y-27105987D01*
X30091800Y-27067799D01*
X30129988Y-27036459D01*
X30173557Y-27013171D01*
X30173560Y-27013170D01*
X30220836Y-26998829D01*
X30270000Y-26993987D01*
X30319165Y-26998829D01*
G37*
G36*
X24029165Y-26998829D02*
G01*
X24076441Y-27013170D01*
X24076444Y-27013171D01*
X24120013Y-27036459D01*
X24158201Y-27067799D01*
X24189541Y-27105987D01*
X24212829Y-27149556D01*
X24212830Y-27149559D01*
X24227171Y-27196835D01*
X24230800Y-27233683D01*
X24230800Y-27858317D01*
X24227171Y-27895165D01*
X24212830Y-27942440D01*
X24212829Y-27942444D01*
X24189541Y-27986013D01*
X24158203Y-28024197D01*
X24158201Y-28024198D01*
X24158200Y-28024200D01*
X24120011Y-28055541D01*
X24098225Y-28067186D01*
X24076443Y-28078829D01*
X24076440Y-28078830D01*
X24029164Y-28093171D01*
X23980000Y-28098013D01*
X23930835Y-28093171D01*
X23883559Y-28078830D01*
X23883556Y-28078829D01*
X23839987Y-28055541D01*
X23801803Y-28024203D01*
X23801802Y-28024201D01*
X23801800Y-28024200D01*
X23770459Y-27986011D01*
X23747172Y-27942444D01*
X23747171Y-27942443D01*
X23747170Y-27942440D01*
X23732829Y-27895164D01*
X23729200Y-27858316D01*
X23729201Y-27233683D01*
X23732830Y-27196835D01*
X23747171Y-27149559D01*
X23747172Y-27149556D01*
X23770460Y-27105987D01*
X23801800Y-27067799D01*
X23839988Y-27036459D01*
X23883557Y-27013171D01*
X23883560Y-27013170D01*
X23930836Y-26998829D01*
X23980000Y-26993987D01*
X24029165Y-26998829D01*
G37*
G36*
X29669165Y-26998829D02*
G01*
X29716441Y-27013170D01*
X29716444Y-27013171D01*
X29760013Y-27036459D01*
X29798201Y-27067799D01*
X29829541Y-27105987D01*
X29852829Y-27149556D01*
X29852830Y-27149559D01*
X29867171Y-27196835D01*
X29870800Y-27233683D01*
X29870800Y-27858317D01*
X29867171Y-27895165D01*
X29852830Y-27942440D01*
X29852829Y-27942444D01*
X29829541Y-27986013D01*
X29798203Y-28024197D01*
X29798201Y-28024198D01*
X29798200Y-28024200D01*
X29760011Y-28055541D01*
X29738225Y-28067186D01*
X29716443Y-28078829D01*
X29716440Y-28078830D01*
X29669164Y-28093171D01*
X29620000Y-28098013D01*
X29570835Y-28093171D01*
X29523559Y-28078830D01*
X29523556Y-28078829D01*
X29479987Y-28055541D01*
X29441803Y-28024203D01*
X29441802Y-28024201D01*
X29441800Y-28024200D01*
X29410459Y-27986011D01*
X29387172Y-27942444D01*
X29387171Y-27942443D01*
X29387170Y-27942440D01*
X29372829Y-27895164D01*
X29369200Y-27858316D01*
X29369201Y-27233683D01*
X29372830Y-27196835D01*
X29387171Y-27149559D01*
X29387172Y-27149556D01*
X29410460Y-27105987D01*
X29441800Y-27067799D01*
X29479988Y-27036459D01*
X29523557Y-27013171D01*
X29523560Y-27013170D01*
X29570836Y-26998829D01*
X29620000Y-26993987D01*
X29669165Y-26998829D01*
G37*
G36*
X20779165Y-26998829D02*
G01*
X20826441Y-27013170D01*
X20826444Y-27013171D01*
X20870013Y-27036459D01*
X20908201Y-27067799D01*
X20939541Y-27105987D01*
X20962829Y-27149556D01*
X20962830Y-27149559D01*
X20977171Y-27196835D01*
X20980800Y-27233683D01*
X20980800Y-27858317D01*
X20977171Y-27895165D01*
X20962830Y-27942440D01*
X20962829Y-27942444D01*
X20939541Y-27986013D01*
X20908203Y-28024197D01*
X20908201Y-28024198D01*
X20908200Y-28024200D01*
X20870011Y-28055541D01*
X20848225Y-28067186D01*
X20826443Y-28078829D01*
X20826440Y-28078830D01*
X20779164Y-28093171D01*
X20730000Y-28098013D01*
X20680835Y-28093171D01*
X20633559Y-28078830D01*
X20633556Y-28078829D01*
X20589987Y-28055541D01*
X20551803Y-28024203D01*
X20551802Y-28024201D01*
X20551800Y-28024200D01*
X20520459Y-27986011D01*
X20497172Y-27942444D01*
X20497171Y-27942443D01*
X20497170Y-27942440D01*
X20482829Y-27895164D01*
X20479200Y-27858316D01*
X20479201Y-27233683D01*
X20482830Y-27196835D01*
X20497171Y-27149559D01*
X20497172Y-27149556D01*
X20520460Y-27105987D01*
X20551800Y-27067799D01*
X20589988Y-27036459D01*
X20633557Y-27013171D01*
X20633560Y-27013170D01*
X20680836Y-26998829D01*
X20730000Y-26993987D01*
X20779165Y-26998829D01*
G37*
G36*
X20129164Y-24906829D02*
G01*
X20176440Y-24921170D01*
X20176443Y-24921171D01*
X20198226Y-24932815D01*
X20220011Y-24944459D01*
X20258200Y-24975800D01*
X20258201Y-24975802D01*
X20258203Y-24975803D01*
X20289541Y-25013987D01*
X20312829Y-25057556D01*
X20312829Y-25057557D01*
X20312830Y-25057559D01*
X20327171Y-25104835D01*
X20330800Y-25141683D01*
X20330800Y-25766317D01*
X20327171Y-25803165D01*
X20312830Y-25850441D01*
X20312829Y-25850444D01*
X20289541Y-25894013D01*
X20258201Y-25932201D01*
X20220013Y-25963541D01*
X20176444Y-25986829D01*
X20176441Y-25986830D01*
X20129165Y-26001171D01*
X20080000Y-26006013D01*
X20030836Y-26001171D01*
X19983560Y-25986830D01*
X19983557Y-25986829D01*
X19939988Y-25963541D01*
X19901800Y-25932201D01*
X19870460Y-25894013D01*
X19847172Y-25850444D01*
X19847171Y-25850441D01*
X19832830Y-25803165D01*
X19829201Y-25766317D01*
X19829200Y-25141684D01*
X19832829Y-25104836D01*
X19847170Y-25057560D01*
X19847171Y-25057557D01*
X19858815Y-25035774D01*
X19870459Y-25013989D01*
X19901800Y-24975800D01*
X19901802Y-24975799D01*
X19901803Y-24975797D01*
X19939987Y-24944459D01*
X19983556Y-24921171D01*
X19983559Y-24921170D01*
X20030835Y-24906829D01*
X20080000Y-24901987D01*
X20129164Y-24906829D01*
G37*
G36*
X20779164Y-24906829D02*
G01*
X20826440Y-24921170D01*
X20826443Y-24921171D01*
X20848226Y-24932815D01*
X20870011Y-24944459D01*
X20908200Y-24975800D01*
X20908201Y-24975802D01*
X20908203Y-24975803D01*
X20939541Y-25013987D01*
X20962829Y-25057556D01*
X20962829Y-25057557D01*
X20962830Y-25057559D01*
X20977171Y-25104835D01*
X20980800Y-25141683D01*
X20980800Y-25766317D01*
X20977171Y-25803165D01*
X20962830Y-25850441D01*
X20962829Y-25850444D01*
X20939541Y-25894013D01*
X20908201Y-25932201D01*
X20870013Y-25963541D01*
X20826444Y-25986829D01*
X20826441Y-25986830D01*
X20779165Y-26001171D01*
X20730000Y-26006013D01*
X20680836Y-26001171D01*
X20633560Y-25986830D01*
X20633557Y-25986829D01*
X20589988Y-25963541D01*
X20551800Y-25932201D01*
X20520460Y-25894013D01*
X20497172Y-25850444D01*
X20497171Y-25850441D01*
X20482830Y-25803165D01*
X20479201Y-25766317D01*
X20479200Y-25141684D01*
X20482829Y-25104836D01*
X20497170Y-25057560D01*
X20497171Y-25057557D01*
X20508815Y-25035774D01*
X20520459Y-25013989D01*
X20551800Y-24975800D01*
X20551802Y-24975799D01*
X20551803Y-24975797D01*
X20589987Y-24944459D01*
X20633556Y-24921171D01*
X20633559Y-24921170D01*
X20680835Y-24906829D01*
X20730000Y-24901987D01*
X20779164Y-24906829D01*
G37*
G36*
X22729164Y-24906829D02*
G01*
X22776440Y-24921170D01*
X22776443Y-24921171D01*
X22798226Y-24932815D01*
X22820011Y-24944459D01*
X22858200Y-24975800D01*
X22858201Y-24975802D01*
X22858203Y-24975803D01*
X22889541Y-25013987D01*
X22912829Y-25057556D01*
X22912829Y-25057557D01*
X22912830Y-25057559D01*
X22927171Y-25104835D01*
X22930800Y-25141683D01*
X22930800Y-25766317D01*
X22927171Y-25803165D01*
X22912830Y-25850441D01*
X22912829Y-25850444D01*
X22889541Y-25894013D01*
X22858201Y-25932201D01*
X22820013Y-25963541D01*
X22776444Y-25986829D01*
X22776441Y-25986830D01*
X22729165Y-26001171D01*
X22680000Y-26006013D01*
X22630836Y-26001171D01*
X22583560Y-25986830D01*
X22583557Y-25986829D01*
X22539988Y-25963541D01*
X22501800Y-25932201D01*
X22470460Y-25894013D01*
X22447172Y-25850444D01*
X22447171Y-25850441D01*
X22432830Y-25803165D01*
X22429201Y-25766317D01*
X22429200Y-25141684D01*
X22432829Y-25104836D01*
X22447170Y-25057560D01*
X22447171Y-25057557D01*
X22458815Y-25035774D01*
X22470459Y-25013989D01*
X22501800Y-24975800D01*
X22501802Y-24975799D01*
X22501803Y-24975797D01*
X22539987Y-24944459D01*
X22583556Y-24921171D01*
X22583559Y-24921170D01*
X22630835Y-24906829D01*
X22680000Y-24901987D01*
X22729164Y-24906829D01*
G37*
G36*
X27069164Y-24906829D02*
G01*
X27116440Y-24921170D01*
X27116443Y-24921171D01*
X27138226Y-24932815D01*
X27160011Y-24944459D01*
X27198200Y-24975800D01*
X27198201Y-24975802D01*
X27198203Y-24975803D01*
X27229541Y-25013987D01*
X27252829Y-25057556D01*
X27252829Y-25057557D01*
X27252830Y-25057559D01*
X27267171Y-25104835D01*
X27270800Y-25141683D01*
X27270800Y-25766317D01*
X27267171Y-25803165D01*
X27252830Y-25850441D01*
X27252829Y-25850444D01*
X27229541Y-25894013D01*
X27198201Y-25932201D01*
X27160013Y-25963541D01*
X27116444Y-25986829D01*
X27116441Y-25986830D01*
X27069165Y-26001171D01*
X27020000Y-26006013D01*
X26970836Y-26001171D01*
X26923560Y-25986830D01*
X26923557Y-25986829D01*
X26879988Y-25963541D01*
X26841800Y-25932201D01*
X26810460Y-25894013D01*
X26787172Y-25850444D01*
X26787171Y-25850441D01*
X26772830Y-25803165D01*
X26769201Y-25766317D01*
X26769200Y-25141684D01*
X26772829Y-25104836D01*
X26787170Y-25057560D01*
X26787171Y-25057557D01*
X26798815Y-25035774D01*
X26810459Y-25013989D01*
X26841800Y-24975800D01*
X26841802Y-24975799D01*
X26841803Y-24975797D01*
X26879987Y-24944459D01*
X26923556Y-24921171D01*
X26923559Y-24921170D01*
X26970835Y-24906829D01*
X27020000Y-24901987D01*
X27069164Y-24906829D01*
G37*
G36*
X27719164Y-24906829D02*
G01*
X27766440Y-24921170D01*
X27766443Y-24921171D01*
X27788226Y-24932815D01*
X27810011Y-24944459D01*
X27848200Y-24975800D01*
X27848201Y-24975802D01*
X27848203Y-24975803D01*
X27879541Y-25013987D01*
X27902829Y-25057556D01*
X27902829Y-25057557D01*
X27902830Y-25057559D01*
X27917171Y-25104835D01*
X27920800Y-25141683D01*
X27920800Y-25766317D01*
X27917171Y-25803165D01*
X27902830Y-25850441D01*
X27902829Y-25850444D01*
X27879541Y-25894013D01*
X27848201Y-25932201D01*
X27810013Y-25963541D01*
X27766444Y-25986829D01*
X27766441Y-25986830D01*
X27719165Y-26001171D01*
X27670000Y-26006013D01*
X27620836Y-26001171D01*
X27573560Y-25986830D01*
X27573557Y-25986829D01*
X27529988Y-25963541D01*
X27491800Y-25932201D01*
X27460460Y-25894013D01*
X27437172Y-25850444D01*
X27437171Y-25850441D01*
X27422830Y-25803165D01*
X27419201Y-25766317D01*
X27419200Y-25141684D01*
X27422829Y-25104836D01*
X27437170Y-25057560D01*
X27437171Y-25057557D01*
X27448815Y-25035774D01*
X27460459Y-25013989D01*
X27491800Y-24975800D01*
X27491802Y-24975799D01*
X27491803Y-24975797D01*
X27529987Y-24944459D01*
X27573556Y-24921171D01*
X27573559Y-24921170D01*
X27620835Y-24906829D01*
X27670000Y-24901987D01*
X27719164Y-24906829D01*
G37*
G36*
X28369164Y-24906829D02*
G01*
X28416440Y-24921170D01*
X28416443Y-24921171D01*
X28438226Y-24932815D01*
X28460011Y-24944459D01*
X28498200Y-24975800D01*
X28498201Y-24975802D01*
X28498203Y-24975803D01*
X28529541Y-25013987D01*
X28552829Y-25057556D01*
X28552829Y-25057557D01*
X28552830Y-25057559D01*
X28567171Y-25104835D01*
X28570800Y-25141683D01*
X28570800Y-25766317D01*
X28567171Y-25803165D01*
X28552830Y-25850441D01*
X28552829Y-25850444D01*
X28529541Y-25894013D01*
X28498201Y-25932201D01*
X28460013Y-25963541D01*
X28416444Y-25986829D01*
X28416441Y-25986830D01*
X28369165Y-26001171D01*
X28320000Y-26006013D01*
X28270836Y-26001171D01*
X28223560Y-25986830D01*
X28223557Y-25986829D01*
X28179988Y-25963541D01*
X28141800Y-25932201D01*
X28110460Y-25894013D01*
X28087172Y-25850444D01*
X28087171Y-25850441D01*
X28072830Y-25803165D01*
X28069201Y-25766317D01*
X28069200Y-25141684D01*
X28072829Y-25104836D01*
X28087170Y-25057560D01*
X28087171Y-25057557D01*
X28098815Y-25035774D01*
X28110459Y-25013989D01*
X28141800Y-24975800D01*
X28141802Y-24975799D01*
X28141803Y-24975797D01*
X28179987Y-24944459D01*
X28223556Y-24921171D01*
X28223559Y-24921170D01*
X28270835Y-24906829D01*
X28320000Y-24901987D01*
X28369164Y-24906829D01*
G37*
G36*
X29019164Y-24906829D02*
G01*
X29066440Y-24921170D01*
X29066443Y-24921171D01*
X29088226Y-24932815D01*
X29110011Y-24944459D01*
X29148200Y-24975800D01*
X29148201Y-24975802D01*
X29148203Y-24975803D01*
X29179541Y-25013987D01*
X29202829Y-25057556D01*
X29202829Y-25057557D01*
X29202830Y-25057559D01*
X29217171Y-25104835D01*
X29220800Y-25141683D01*
X29220800Y-25766317D01*
X29217171Y-25803165D01*
X29202830Y-25850441D01*
X29202829Y-25850444D01*
X29179541Y-25894013D01*
X29148201Y-25932201D01*
X29110013Y-25963541D01*
X29066444Y-25986829D01*
X29066441Y-25986830D01*
X29019165Y-26001171D01*
X28970000Y-26006013D01*
X28920836Y-26001171D01*
X28873560Y-25986830D01*
X28873557Y-25986829D01*
X28829988Y-25963541D01*
X28791800Y-25932201D01*
X28760460Y-25894013D01*
X28737172Y-25850444D01*
X28737171Y-25850441D01*
X28722830Y-25803165D01*
X28719201Y-25766317D01*
X28719200Y-25141684D01*
X28722829Y-25104836D01*
X28737170Y-25057560D01*
X28737171Y-25057557D01*
X28748815Y-25035774D01*
X28760459Y-25013989D01*
X28791800Y-24975800D01*
X28791802Y-24975799D01*
X28791803Y-24975797D01*
X28829987Y-24944459D01*
X28873556Y-24921171D01*
X28873559Y-24921170D01*
X28920835Y-24906829D01*
X28970000Y-24901987D01*
X29019164Y-24906829D01*
G37*
G36*
X29669164Y-24906829D02*
G01*
X29716440Y-24921170D01*
X29716443Y-24921171D01*
X29738226Y-24932815D01*
X29760011Y-24944459D01*
X29798200Y-24975800D01*
X29798201Y-24975802D01*
X29798203Y-24975803D01*
X29829541Y-25013987D01*
X29852829Y-25057556D01*
X29852829Y-25057557D01*
X29852830Y-25057559D01*
X29867171Y-25104835D01*
X29870800Y-25141683D01*
X29870800Y-25766317D01*
X29867171Y-25803165D01*
X29852830Y-25850441D01*
X29852829Y-25850444D01*
X29829541Y-25894013D01*
X29798201Y-25932201D01*
X29760013Y-25963541D01*
X29716444Y-25986829D01*
X29716441Y-25986830D01*
X29669165Y-26001171D01*
X29620000Y-26006013D01*
X29570836Y-26001171D01*
X29523560Y-25986830D01*
X29523557Y-25986829D01*
X29479988Y-25963541D01*
X29441800Y-25932201D01*
X29410460Y-25894013D01*
X29387172Y-25850444D01*
X29387171Y-25850441D01*
X29372830Y-25803165D01*
X29369201Y-25766317D01*
X29369200Y-25141684D01*
X29372829Y-25104836D01*
X29387170Y-25057560D01*
X29387171Y-25057557D01*
X29398815Y-25035774D01*
X29410459Y-25013989D01*
X29441800Y-24975800D01*
X29441802Y-24975799D01*
X29441803Y-24975797D01*
X29479987Y-24944459D01*
X29523556Y-24921171D01*
X29523559Y-24921170D01*
X29570835Y-24906829D01*
X29620000Y-24901987D01*
X29669164Y-24906829D01*
G37*
G36*
X31619164Y-24906829D02*
G01*
X31666440Y-24921170D01*
X31666443Y-24921171D01*
X31688226Y-24932815D01*
X31710011Y-24944459D01*
X31748200Y-24975800D01*
X31748201Y-24975802D01*
X31748203Y-24975803D01*
X31779541Y-25013987D01*
X31802829Y-25057556D01*
X31802829Y-25057557D01*
X31802830Y-25057559D01*
X31817171Y-25104835D01*
X31820800Y-25141683D01*
X31820800Y-25766317D01*
X31817171Y-25803165D01*
X31802830Y-25850441D01*
X31802829Y-25850444D01*
X31779541Y-25894013D01*
X31748201Y-25932201D01*
X31710013Y-25963541D01*
X31666444Y-25986829D01*
X31666441Y-25986830D01*
X31619165Y-26001171D01*
X31570000Y-26006013D01*
X31520836Y-26001171D01*
X31473560Y-25986830D01*
X31473557Y-25986829D01*
X31429988Y-25963541D01*
X31391800Y-25932201D01*
X31360460Y-25894013D01*
X31337172Y-25850444D01*
X31337171Y-25850441D01*
X31322830Y-25803165D01*
X31319201Y-25766317D01*
X31319200Y-25141684D01*
X31322829Y-25104836D01*
X31337170Y-25057560D01*
X31337171Y-25057557D01*
X31348815Y-25035774D01*
X31360459Y-25013989D01*
X31391800Y-24975800D01*
X31391802Y-24975799D01*
X31391803Y-24975797D01*
X31429987Y-24944459D01*
X31473556Y-24921171D01*
X31473559Y-24921170D01*
X31520835Y-24906829D01*
X31570000Y-24901987D01*
X31619164Y-24906829D01*
G37*
G36*
X23379164Y-24906829D02*
G01*
X23426440Y-24921170D01*
X23426443Y-24921171D01*
X23448226Y-24932815D01*
X23470011Y-24944459D01*
X23508200Y-24975800D01*
X23508201Y-24975802D01*
X23508203Y-24975803D01*
X23539541Y-25013987D01*
X23562829Y-25057556D01*
X23562829Y-25057557D01*
X23562830Y-25057559D01*
X23577171Y-25104835D01*
X23580800Y-25141683D01*
X23580800Y-25766317D01*
X23577171Y-25803165D01*
X23562830Y-25850441D01*
X23562829Y-25850444D01*
X23539541Y-25894013D01*
X23508201Y-25932201D01*
X23470013Y-25963541D01*
X23426444Y-25986829D01*
X23426441Y-25986830D01*
X23379165Y-26001171D01*
X23330000Y-26006013D01*
X23280836Y-26001171D01*
X23233560Y-25986830D01*
X23233557Y-25986829D01*
X23189988Y-25963541D01*
X23151800Y-25932201D01*
X23120460Y-25894013D01*
X23097172Y-25850444D01*
X23097171Y-25850441D01*
X23082830Y-25803165D01*
X23079201Y-25766317D01*
X23079200Y-25141684D01*
X23082829Y-25104836D01*
X23097170Y-25057560D01*
X23097171Y-25057557D01*
X23108815Y-25035774D01*
X23120459Y-25013989D01*
X23151800Y-24975800D01*
X23151802Y-24975799D01*
X23151803Y-24975797D01*
X23189987Y-24944459D01*
X23233556Y-24921171D01*
X23233559Y-24921170D01*
X23280835Y-24906829D01*
X23330000Y-24901987D01*
X23379164Y-24906829D01*
G37*
G36*
X30969164Y-24906829D02*
G01*
X31016440Y-24921170D01*
X31016443Y-24921171D01*
X31038226Y-24932815D01*
X31060011Y-24944459D01*
X31098200Y-24975800D01*
X31098201Y-24975802D01*
X31098203Y-24975803D01*
X31129541Y-25013987D01*
X31152829Y-25057556D01*
X31152829Y-25057557D01*
X31152830Y-25057559D01*
X31167171Y-25104835D01*
X31170800Y-25141683D01*
X31170800Y-25766317D01*
X31167171Y-25803165D01*
X31152830Y-25850441D01*
X31152829Y-25850444D01*
X31129541Y-25894013D01*
X31098201Y-25932201D01*
X31060013Y-25963541D01*
X31016444Y-25986829D01*
X31016441Y-25986830D01*
X30969165Y-26001171D01*
X30920000Y-26006013D01*
X30870836Y-26001171D01*
X30823560Y-25986830D01*
X30823557Y-25986829D01*
X30779988Y-25963541D01*
X30741800Y-25932201D01*
X30710460Y-25894013D01*
X30687172Y-25850444D01*
X30687171Y-25850441D01*
X30672830Y-25803165D01*
X30669201Y-25766317D01*
X30669200Y-25141684D01*
X30672829Y-25104836D01*
X30687170Y-25057560D01*
X30687171Y-25057557D01*
X30698815Y-25035774D01*
X30710459Y-25013989D01*
X30741800Y-24975800D01*
X30741802Y-24975799D01*
X30741803Y-24975797D01*
X30779987Y-24944459D01*
X30823556Y-24921171D01*
X30823559Y-24921170D01*
X30870835Y-24906829D01*
X30920000Y-24901987D01*
X30969164Y-24906829D01*
G37*
G36*
X22079164Y-24906829D02*
G01*
X22126440Y-24921170D01*
X22126443Y-24921171D01*
X22148226Y-24932815D01*
X22170011Y-24944459D01*
X22208200Y-24975800D01*
X22208201Y-24975802D01*
X22208203Y-24975803D01*
X22239541Y-25013987D01*
X22262829Y-25057556D01*
X22262829Y-25057557D01*
X22262830Y-25057559D01*
X22277171Y-25104835D01*
X22280800Y-25141683D01*
X22280800Y-25766317D01*
X22277171Y-25803165D01*
X22262830Y-25850441D01*
X22262829Y-25850444D01*
X22239541Y-25894013D01*
X22208201Y-25932201D01*
X22170013Y-25963541D01*
X22126444Y-25986829D01*
X22126441Y-25986830D01*
X22079165Y-26001171D01*
X22030000Y-26006013D01*
X21980836Y-26001171D01*
X21933560Y-25986830D01*
X21933557Y-25986829D01*
X21889988Y-25963541D01*
X21851800Y-25932201D01*
X21820460Y-25894013D01*
X21797172Y-25850444D01*
X21797171Y-25850441D01*
X21782830Y-25803165D01*
X21779201Y-25766317D01*
X21779200Y-25141684D01*
X21782829Y-25104836D01*
X21797170Y-25057560D01*
X21797171Y-25057557D01*
X21808815Y-25035774D01*
X21820459Y-25013989D01*
X21851800Y-24975800D01*
X21851802Y-24975799D01*
X21851803Y-24975797D01*
X21889987Y-24944459D01*
X21933556Y-24921171D01*
X21933559Y-24921170D01*
X21980835Y-24906829D01*
X22030000Y-24901987D01*
X22079164Y-24906829D01*
G37*
G36*
X19479164Y-24906829D02*
G01*
X19526440Y-24921170D01*
X19526443Y-24921171D01*
X19548226Y-24932815D01*
X19570011Y-24944459D01*
X19608200Y-24975800D01*
X19608201Y-24975802D01*
X19608203Y-24975803D01*
X19639541Y-25013987D01*
X19662829Y-25057556D01*
X19662829Y-25057557D01*
X19662830Y-25057559D01*
X19677171Y-25104835D01*
X19680800Y-25141683D01*
X19680800Y-25766317D01*
X19677171Y-25803165D01*
X19662830Y-25850441D01*
X19662829Y-25850444D01*
X19639541Y-25894013D01*
X19608201Y-25932201D01*
X19570013Y-25963541D01*
X19526444Y-25986829D01*
X19526441Y-25986830D01*
X19479165Y-26001171D01*
X19430000Y-26006013D01*
X19380836Y-26001171D01*
X19333560Y-25986830D01*
X19333557Y-25986829D01*
X19289988Y-25963541D01*
X19251800Y-25932201D01*
X19220460Y-25894013D01*
X19197172Y-25850444D01*
X19197171Y-25850441D01*
X19182830Y-25803165D01*
X19179201Y-25766317D01*
X19179200Y-25141684D01*
X19182829Y-25104836D01*
X19197170Y-25057560D01*
X19197171Y-25057557D01*
X19208815Y-25035774D01*
X19220459Y-25013989D01*
X19251800Y-24975800D01*
X19251802Y-24975799D01*
X19251803Y-24975797D01*
X19289987Y-24944459D01*
X19333556Y-24921171D01*
X19333559Y-24921170D01*
X19380835Y-24906829D01*
X19430000Y-24901987D01*
X19479164Y-24906829D01*
G37*
G36*
X21429164Y-24906829D02*
G01*
X21476440Y-24921170D01*
X21476443Y-24921171D01*
X21498226Y-24932815D01*
X21520011Y-24944459D01*
X21558200Y-24975800D01*
X21558201Y-24975802D01*
X21558203Y-24975803D01*
X21589541Y-25013987D01*
X21612829Y-25057556D01*
X21612829Y-25057557D01*
X21612830Y-25057559D01*
X21627171Y-25104835D01*
X21630800Y-25141683D01*
X21630800Y-25766317D01*
X21627171Y-25803165D01*
X21612830Y-25850441D01*
X21612829Y-25850444D01*
X21589541Y-25894013D01*
X21558201Y-25932201D01*
X21520013Y-25963541D01*
X21476444Y-25986829D01*
X21476441Y-25986830D01*
X21429165Y-26001171D01*
X21380000Y-26006013D01*
X21330836Y-26001171D01*
X21283560Y-25986830D01*
X21283557Y-25986829D01*
X21239988Y-25963541D01*
X21201800Y-25932201D01*
X21170460Y-25894013D01*
X21147172Y-25850444D01*
X21147171Y-25850441D01*
X21132830Y-25803165D01*
X21129201Y-25766317D01*
X21129200Y-25141684D01*
X21132829Y-25104836D01*
X21147170Y-25057560D01*
X21147171Y-25057557D01*
X21158815Y-25035774D01*
X21170459Y-25013989D01*
X21201800Y-24975800D01*
X21201802Y-24975799D01*
X21201803Y-24975797D01*
X21239987Y-24944459D01*
X21283556Y-24921171D01*
X21283559Y-24921170D01*
X21330835Y-24906829D01*
X21380000Y-24901987D01*
X21429164Y-24906829D01*
G37*
G36*
X18829164Y-24906829D02*
G01*
X18876440Y-24921170D01*
X18876443Y-24921171D01*
X18898226Y-24932815D01*
X18920011Y-24944459D01*
X18958200Y-24975800D01*
X18958201Y-24975802D01*
X18958203Y-24975803D01*
X18989541Y-25013987D01*
X19012829Y-25057556D01*
X19012829Y-25057557D01*
X19012830Y-25057559D01*
X19027171Y-25104835D01*
X19030800Y-25141683D01*
X19030800Y-25766317D01*
X19027171Y-25803165D01*
X19012830Y-25850441D01*
X19012829Y-25850444D01*
X18989541Y-25894013D01*
X18958201Y-25932201D01*
X18920013Y-25963541D01*
X18876444Y-25986829D01*
X18876441Y-25986830D01*
X18829165Y-26001171D01*
X18780000Y-26006013D01*
X18730836Y-26001171D01*
X18683560Y-25986830D01*
X18683557Y-25986829D01*
X18639988Y-25963541D01*
X18601800Y-25932201D01*
X18570460Y-25894013D01*
X18547172Y-25850444D01*
X18547171Y-25850441D01*
X18532830Y-25803165D01*
X18529201Y-25766317D01*
X18529200Y-25141684D01*
X18532829Y-25104836D01*
X18547170Y-25057560D01*
X18547171Y-25057557D01*
X18558815Y-25035774D01*
X18570459Y-25013989D01*
X18601800Y-24975800D01*
X18601802Y-24975799D01*
X18601803Y-24975797D01*
X18639987Y-24944459D01*
X18683556Y-24921171D01*
X18683559Y-24921170D01*
X18730835Y-24906829D01*
X18780000Y-24901987D01*
X18829164Y-24906829D01*
G37*
G36*
X30319164Y-24906829D02*
G01*
X30366440Y-24921170D01*
X30366443Y-24921171D01*
X30388226Y-24932815D01*
X30410011Y-24944459D01*
X30448200Y-24975800D01*
X30448201Y-24975802D01*
X30448203Y-24975803D01*
X30479541Y-25013987D01*
X30502829Y-25057556D01*
X30502829Y-25057557D01*
X30502830Y-25057559D01*
X30517171Y-25104835D01*
X30520800Y-25141683D01*
X30520800Y-25766317D01*
X30517171Y-25803165D01*
X30502830Y-25850441D01*
X30502829Y-25850444D01*
X30479541Y-25894013D01*
X30448201Y-25932201D01*
X30410013Y-25963541D01*
X30366444Y-25986829D01*
X30366441Y-25986830D01*
X30319165Y-26001171D01*
X30270000Y-26006013D01*
X30220836Y-26001171D01*
X30173560Y-25986830D01*
X30173557Y-25986829D01*
X30129988Y-25963541D01*
X30091800Y-25932201D01*
X30060460Y-25894013D01*
X30037172Y-25850444D01*
X30037171Y-25850441D01*
X30022830Y-25803165D01*
X30019201Y-25766317D01*
X30019200Y-25141684D01*
X30022829Y-25104836D01*
X30037170Y-25057560D01*
X30037171Y-25057557D01*
X30048815Y-25035774D01*
X30060459Y-25013989D01*
X30091800Y-24975800D01*
X30091802Y-24975799D01*
X30091803Y-24975797D01*
X30129987Y-24944459D01*
X30173556Y-24921171D01*
X30173559Y-24921170D01*
X30220835Y-24906829D01*
X30270000Y-24901987D01*
X30319164Y-24906829D01*
G37*
G36*
X24029165Y-19998829D02*
G01*
X24076441Y-20013170D01*
X24076444Y-20013171D01*
X24120013Y-20036459D01*
X24158201Y-20067799D01*
X24189541Y-20105987D01*
X24212829Y-20149556D01*
X24212830Y-20149559D01*
X24227171Y-20196835D01*
X24230800Y-20233683D01*
X24230800Y-20858317D01*
X24227171Y-20895165D01*
X24212830Y-20942440D01*
X24212829Y-20942444D01*
X24189541Y-20986013D01*
X24158203Y-21024197D01*
X24158201Y-21024198D01*
X24158200Y-21024200D01*
X24120011Y-21055541D01*
X24098226Y-21067185D01*
X24076443Y-21078829D01*
X24076440Y-21078830D01*
X24029164Y-21093171D01*
X23980000Y-21098013D01*
X23930835Y-21093171D01*
X23883559Y-21078830D01*
X23883556Y-21078829D01*
X23839987Y-21055541D01*
X23801803Y-21024203D01*
X23801802Y-21024201D01*
X23801800Y-21024200D01*
X23770459Y-20986011D01*
X23747172Y-20942444D01*
X23747171Y-20942443D01*
X23747170Y-20942440D01*
X23732829Y-20895164D01*
X23729200Y-20858316D01*
X23729201Y-20233683D01*
X23732830Y-20196835D01*
X23747171Y-20149559D01*
X23747172Y-20149556D01*
X23770460Y-20105987D01*
X23801800Y-20067799D01*
X23839988Y-20036459D01*
X23883557Y-20013171D01*
X23883560Y-20013170D01*
X23930836Y-19998829D01*
X23980000Y-19993987D01*
X24029165Y-19998829D01*
G37*
G36*
X23379165Y-19998829D02*
G01*
X23426441Y-20013170D01*
X23426444Y-20013171D01*
X23470013Y-20036459D01*
X23508201Y-20067799D01*
X23539541Y-20105987D01*
X23562829Y-20149556D01*
X23562830Y-20149559D01*
X23577171Y-20196835D01*
X23580800Y-20233683D01*
X23580800Y-20858317D01*
X23577171Y-20895165D01*
X23562830Y-20942440D01*
X23562829Y-20942444D01*
X23539541Y-20986013D01*
X23508203Y-21024197D01*
X23508201Y-21024198D01*
X23508200Y-21024200D01*
X23470011Y-21055541D01*
X23448226Y-21067185D01*
X23426443Y-21078829D01*
X23426440Y-21078830D01*
X23379164Y-21093171D01*
X23330000Y-21098013D01*
X23280835Y-21093171D01*
X23233559Y-21078830D01*
X23233556Y-21078829D01*
X23189987Y-21055541D01*
X23151803Y-21024203D01*
X23151802Y-21024201D01*
X23151800Y-21024200D01*
X23120459Y-20986011D01*
X23097172Y-20942444D01*
X23097171Y-20942443D01*
X23097170Y-20942440D01*
X23082829Y-20895164D01*
X23079200Y-20858316D01*
X23079201Y-20233683D01*
X23082830Y-20196835D01*
X23097171Y-20149559D01*
X23097172Y-20149556D01*
X23120460Y-20105987D01*
X23151800Y-20067799D01*
X23189988Y-20036459D01*
X23233557Y-20013171D01*
X23233560Y-20013170D01*
X23280836Y-19998829D01*
X23330000Y-19993987D01*
X23379165Y-19998829D01*
G37*
G36*
X22729165Y-19998829D02*
G01*
X22776441Y-20013170D01*
X22776444Y-20013171D01*
X22820013Y-20036459D01*
X22858201Y-20067799D01*
X22889541Y-20105987D01*
X22912829Y-20149556D01*
X22912830Y-20149559D01*
X22927171Y-20196835D01*
X22930800Y-20233683D01*
X22930800Y-20858317D01*
X22927171Y-20895165D01*
X22912830Y-20942440D01*
X22912829Y-20942444D01*
X22889541Y-20986013D01*
X22858203Y-21024197D01*
X22858201Y-21024198D01*
X22858200Y-21024200D01*
X22820011Y-21055541D01*
X22798226Y-21067185D01*
X22776443Y-21078829D01*
X22776440Y-21078830D01*
X22729164Y-21093171D01*
X22680000Y-21098013D01*
X22630835Y-21093171D01*
X22583559Y-21078830D01*
X22583556Y-21078829D01*
X22539987Y-21055541D01*
X22501803Y-21024203D01*
X22501802Y-21024201D01*
X22501800Y-21024200D01*
X22470459Y-20986011D01*
X22447172Y-20942444D01*
X22447171Y-20942443D01*
X22447170Y-20942440D01*
X22432829Y-20895164D01*
X22429200Y-20858316D01*
X22429201Y-20233683D01*
X22432830Y-20196835D01*
X22447171Y-20149559D01*
X22447172Y-20149556D01*
X22470460Y-20105987D01*
X22501800Y-20067799D01*
X22539988Y-20036459D01*
X22583557Y-20013171D01*
X22583560Y-20013170D01*
X22630836Y-19998829D01*
X22680000Y-19993987D01*
X22729165Y-19998829D01*
G37*
G36*
X22079165Y-19998829D02*
G01*
X22126441Y-20013170D01*
X22126444Y-20013171D01*
X22170013Y-20036459D01*
X22208201Y-20067799D01*
X22239541Y-20105987D01*
X22262829Y-20149556D01*
X22262830Y-20149559D01*
X22277171Y-20196835D01*
X22280800Y-20233683D01*
X22280800Y-20858317D01*
X22277171Y-20895165D01*
X22262830Y-20942440D01*
X22262829Y-20942444D01*
X22239541Y-20986013D01*
X22208203Y-21024197D01*
X22208201Y-21024198D01*
X22208200Y-21024200D01*
X22170011Y-21055541D01*
X22148226Y-21067185D01*
X22126443Y-21078829D01*
X22126440Y-21078830D01*
X22079164Y-21093171D01*
X22030000Y-21098013D01*
X21980835Y-21093171D01*
X21933559Y-21078830D01*
X21933556Y-21078829D01*
X21889987Y-21055541D01*
X21851803Y-21024203D01*
X21851802Y-21024201D01*
X21851800Y-21024200D01*
X21820459Y-20986011D01*
X21797172Y-20942444D01*
X21797171Y-20942443D01*
X21797170Y-20942440D01*
X21782829Y-20895164D01*
X21779200Y-20858316D01*
X21779201Y-20233683D01*
X21782830Y-20196835D01*
X21797171Y-20149559D01*
X21797172Y-20149556D01*
X21820460Y-20105987D01*
X21851800Y-20067799D01*
X21889988Y-20036459D01*
X21933557Y-20013171D01*
X21933560Y-20013170D01*
X21980836Y-19998829D01*
X22030000Y-19993987D01*
X22079165Y-19998829D01*
G37*
G36*
X21429165Y-19998829D02*
G01*
X21476441Y-20013170D01*
X21476444Y-20013171D01*
X21520013Y-20036459D01*
X21558201Y-20067799D01*
X21589541Y-20105987D01*
X21612829Y-20149556D01*
X21612830Y-20149559D01*
X21627171Y-20196835D01*
X21630800Y-20233683D01*
X21630800Y-20858317D01*
X21627171Y-20895165D01*
X21612830Y-20942440D01*
X21612829Y-20942444D01*
X21589541Y-20986013D01*
X21558203Y-21024197D01*
X21558201Y-21024198D01*
X21558200Y-21024200D01*
X21520011Y-21055541D01*
X21498226Y-21067185D01*
X21476443Y-21078829D01*
X21476440Y-21078830D01*
X21429164Y-21093171D01*
X21380000Y-21098013D01*
X21330835Y-21093171D01*
X21283559Y-21078830D01*
X21283556Y-21078829D01*
X21239987Y-21055541D01*
X21201803Y-21024203D01*
X21201802Y-21024201D01*
X21201800Y-21024200D01*
X21170459Y-20986011D01*
X21147172Y-20942444D01*
X21147171Y-20942443D01*
X21147170Y-20942440D01*
X21132829Y-20895164D01*
X21129200Y-20858316D01*
X21129201Y-20233683D01*
X21132830Y-20196835D01*
X21147171Y-20149559D01*
X21147172Y-20149556D01*
X21170460Y-20105987D01*
X21201800Y-20067799D01*
X21239988Y-20036459D01*
X21283557Y-20013171D01*
X21283560Y-20013170D01*
X21330836Y-19998829D01*
X21380000Y-19993987D01*
X21429165Y-19998829D01*
G37*
G36*
X20779165Y-19998829D02*
G01*
X20826441Y-20013170D01*
X20826444Y-20013171D01*
X20870013Y-20036459D01*
X20908201Y-20067799D01*
X20939541Y-20105987D01*
X20962829Y-20149556D01*
X20962830Y-20149559D01*
X20977171Y-20196835D01*
X20980800Y-20233683D01*
X20980800Y-20858317D01*
X20977171Y-20895165D01*
X20962830Y-20942440D01*
X20962829Y-20942444D01*
X20939541Y-20986013D01*
X20908203Y-21024197D01*
X20908201Y-21024198D01*
X20908200Y-21024200D01*
X20870011Y-21055541D01*
X20848226Y-21067185D01*
X20826443Y-21078829D01*
X20826440Y-21078830D01*
X20779164Y-21093171D01*
X20730000Y-21098013D01*
X20680835Y-21093171D01*
X20633559Y-21078830D01*
X20633556Y-21078829D01*
X20589987Y-21055541D01*
X20551803Y-21024203D01*
X20551802Y-21024201D01*
X20551800Y-21024200D01*
X20520459Y-20986011D01*
X20497172Y-20942444D01*
X20497171Y-20942443D01*
X20497170Y-20942440D01*
X20482829Y-20895164D01*
X20479200Y-20858316D01*
X20479201Y-20233683D01*
X20482830Y-20196835D01*
X20497171Y-20149559D01*
X20497172Y-20149556D01*
X20520460Y-20105987D01*
X20551800Y-20067799D01*
X20589988Y-20036459D01*
X20633557Y-20013171D01*
X20633560Y-20013170D01*
X20680836Y-19998829D01*
X20730000Y-19993987D01*
X20779165Y-19998829D01*
G37*
G36*
X20129165Y-19998829D02*
G01*
X20176441Y-20013170D01*
X20176444Y-20013171D01*
X20220013Y-20036459D01*
X20258201Y-20067799D01*
X20289541Y-20105987D01*
X20312829Y-20149556D01*
X20312830Y-20149559D01*
X20327171Y-20196835D01*
X20330800Y-20233683D01*
X20330800Y-20858317D01*
X20327171Y-20895165D01*
X20312830Y-20942440D01*
X20312829Y-20942444D01*
X20289541Y-20986013D01*
X20258203Y-21024197D01*
X20258201Y-21024198D01*
X20258200Y-21024200D01*
X20220011Y-21055541D01*
X20198226Y-21067185D01*
X20176443Y-21078829D01*
X20176440Y-21078830D01*
X20129164Y-21093171D01*
X20080000Y-21098013D01*
X20030835Y-21093171D01*
X19983559Y-21078830D01*
X19983556Y-21078829D01*
X19939987Y-21055541D01*
X19901803Y-21024203D01*
X19901802Y-21024201D01*
X19901800Y-21024200D01*
X19870459Y-20986011D01*
X19847172Y-20942444D01*
X19847171Y-20942443D01*
X19847170Y-20942440D01*
X19832829Y-20895164D01*
X19829200Y-20858316D01*
X19829201Y-20233683D01*
X19832830Y-20196835D01*
X19847171Y-20149559D01*
X19847172Y-20149556D01*
X19870460Y-20105987D01*
X19901800Y-20067799D01*
X19939988Y-20036459D01*
X19983557Y-20013171D01*
X19983560Y-20013170D01*
X20030836Y-19998829D01*
X20080000Y-19993987D01*
X20129165Y-19998829D01*
G37*
G36*
X19479165Y-19998829D02*
G01*
X19526441Y-20013170D01*
X19526444Y-20013171D01*
X19570013Y-20036459D01*
X19608201Y-20067799D01*
X19639541Y-20105987D01*
X19662829Y-20149556D01*
X19662830Y-20149559D01*
X19677171Y-20196835D01*
X19680800Y-20233683D01*
X19680800Y-20858317D01*
X19677171Y-20895165D01*
X19662830Y-20942440D01*
X19662829Y-20942444D01*
X19639541Y-20986013D01*
X19608203Y-21024197D01*
X19608201Y-21024198D01*
X19608200Y-21024200D01*
X19570011Y-21055541D01*
X19548226Y-21067185D01*
X19526443Y-21078829D01*
X19526440Y-21078830D01*
X19479164Y-21093171D01*
X19430000Y-21098013D01*
X19380835Y-21093171D01*
X19333559Y-21078830D01*
X19333556Y-21078829D01*
X19289987Y-21055541D01*
X19251803Y-21024203D01*
X19251802Y-21024201D01*
X19251800Y-21024200D01*
X19220459Y-20986011D01*
X19197172Y-20942444D01*
X19197171Y-20942443D01*
X19197170Y-20942440D01*
X19182829Y-20895164D01*
X19179200Y-20858316D01*
X19179201Y-20233683D01*
X19182830Y-20196835D01*
X19197171Y-20149559D01*
X19197172Y-20149556D01*
X19220460Y-20105987D01*
X19251800Y-20067799D01*
X19289988Y-20036459D01*
X19333557Y-20013171D01*
X19333560Y-20013170D01*
X19380836Y-19998829D01*
X19430000Y-19993987D01*
X19479165Y-19998829D01*
G37*
G36*
X28369165Y-19998829D02*
G01*
X28416441Y-20013170D01*
X28416444Y-20013171D01*
X28460013Y-20036459D01*
X28498201Y-20067799D01*
X28529541Y-20105987D01*
X28552829Y-20149556D01*
X28552830Y-20149559D01*
X28567171Y-20196835D01*
X28570800Y-20233683D01*
X28570800Y-20858317D01*
X28567171Y-20895165D01*
X28552830Y-20942440D01*
X28552829Y-20942444D01*
X28529541Y-20986013D01*
X28498203Y-21024197D01*
X28498201Y-21024198D01*
X28498200Y-21024200D01*
X28460011Y-21055541D01*
X28438226Y-21067185D01*
X28416443Y-21078829D01*
X28416440Y-21078830D01*
X28369164Y-21093171D01*
X28320000Y-21098013D01*
X28270835Y-21093171D01*
X28223559Y-21078830D01*
X28223556Y-21078829D01*
X28179987Y-21055541D01*
X28141803Y-21024203D01*
X28141802Y-21024201D01*
X28141800Y-21024200D01*
X28110459Y-20986011D01*
X28087172Y-20942444D01*
X28087171Y-20942443D01*
X28087170Y-20942440D01*
X28072829Y-20895164D01*
X28069200Y-20858316D01*
X28069201Y-20233683D01*
X28072830Y-20196835D01*
X28087171Y-20149559D01*
X28087172Y-20149556D01*
X28110460Y-20105987D01*
X28141800Y-20067799D01*
X28179988Y-20036459D01*
X28223557Y-20013171D01*
X28223560Y-20013170D01*
X28270836Y-19998829D01*
X28320000Y-19993987D01*
X28369165Y-19998829D01*
G37*
G36*
X29019165Y-19998829D02*
G01*
X29066441Y-20013170D01*
X29066444Y-20013171D01*
X29110013Y-20036459D01*
X29148201Y-20067799D01*
X29179541Y-20105987D01*
X29202829Y-20149556D01*
X29202830Y-20149559D01*
X29217171Y-20196835D01*
X29220800Y-20233683D01*
X29220800Y-20858317D01*
X29217171Y-20895165D01*
X29202830Y-20942440D01*
X29202829Y-20942444D01*
X29179541Y-20986013D01*
X29148203Y-21024197D01*
X29148201Y-21024198D01*
X29148200Y-21024200D01*
X29110011Y-21055541D01*
X29088226Y-21067185D01*
X29066443Y-21078829D01*
X29066440Y-21078830D01*
X29019164Y-21093171D01*
X28970000Y-21098013D01*
X28920835Y-21093171D01*
X28873559Y-21078830D01*
X28873556Y-21078829D01*
X28829987Y-21055541D01*
X28791803Y-21024203D01*
X28791802Y-21024201D01*
X28791800Y-21024200D01*
X28760459Y-20986011D01*
X28737172Y-20942444D01*
X28737171Y-20942443D01*
X28737170Y-20942440D01*
X28722829Y-20895164D01*
X28719200Y-20858316D01*
X28719201Y-20233683D01*
X28722830Y-20196835D01*
X28737171Y-20149559D01*
X28737172Y-20149556D01*
X28760460Y-20105987D01*
X28791800Y-20067799D01*
X28829988Y-20036459D01*
X28873557Y-20013171D01*
X28873560Y-20013170D01*
X28920836Y-19998829D01*
X28970000Y-19993987D01*
X29019165Y-19998829D01*
G37*
G36*
X29669165Y-19998829D02*
G01*
X29716441Y-20013170D01*
X29716444Y-20013171D01*
X29760013Y-20036459D01*
X29798201Y-20067799D01*
X29829541Y-20105987D01*
X29852829Y-20149556D01*
X29852830Y-20149559D01*
X29867171Y-20196835D01*
X29870800Y-20233683D01*
X29870800Y-20858317D01*
X29867171Y-20895165D01*
X29852830Y-20942440D01*
X29852829Y-20942444D01*
X29829541Y-20986013D01*
X29798203Y-21024197D01*
X29798201Y-21024198D01*
X29798200Y-21024200D01*
X29760011Y-21055541D01*
X29738226Y-21067185D01*
X29716443Y-21078829D01*
X29716440Y-21078830D01*
X29669164Y-21093171D01*
X29620000Y-21098013D01*
X29570835Y-21093171D01*
X29523559Y-21078830D01*
X29523556Y-21078829D01*
X29479987Y-21055541D01*
X29441803Y-21024203D01*
X29441802Y-21024201D01*
X29441800Y-21024200D01*
X29410459Y-20986011D01*
X29387172Y-20942444D01*
X29387171Y-20942443D01*
X29387170Y-20942440D01*
X29372829Y-20895164D01*
X29369200Y-20858316D01*
X29369201Y-20233683D01*
X29372830Y-20196835D01*
X29387171Y-20149559D01*
X29387172Y-20149556D01*
X29410460Y-20105987D01*
X29441800Y-20067799D01*
X29479988Y-20036459D01*
X29523557Y-20013171D01*
X29523560Y-20013170D01*
X29570836Y-19998829D01*
X29620000Y-19993987D01*
X29669165Y-19998829D01*
G37*
G36*
X30319165Y-19998829D02*
G01*
X30366441Y-20013170D01*
X30366444Y-20013171D01*
X30410013Y-20036459D01*
X30448201Y-20067799D01*
X30479541Y-20105987D01*
X30502829Y-20149556D01*
X30502830Y-20149559D01*
X30517171Y-20196835D01*
X30520800Y-20233683D01*
X30520800Y-20858317D01*
X30517171Y-20895165D01*
X30502830Y-20942440D01*
X30502829Y-20942444D01*
X30479541Y-20986013D01*
X30448203Y-21024197D01*
X30448201Y-21024198D01*
X30448200Y-21024200D01*
X30410011Y-21055541D01*
X30388226Y-21067185D01*
X30366443Y-21078829D01*
X30366440Y-21078830D01*
X30319164Y-21093171D01*
X30270000Y-21098013D01*
X30220835Y-21093171D01*
X30173559Y-21078830D01*
X30173556Y-21078829D01*
X30129987Y-21055541D01*
X30091803Y-21024203D01*
X30091802Y-21024201D01*
X30091800Y-21024200D01*
X30060459Y-20986011D01*
X30037172Y-20942444D01*
X30037171Y-20942443D01*
X30037170Y-20942440D01*
X30022829Y-20895164D01*
X30019200Y-20858316D01*
X30019201Y-20233683D01*
X30022830Y-20196835D01*
X30037171Y-20149559D01*
X30037172Y-20149556D01*
X30060460Y-20105987D01*
X30091800Y-20067799D01*
X30129988Y-20036459D01*
X30173557Y-20013171D01*
X30173560Y-20013170D01*
X30220836Y-19998829D01*
X30270000Y-19993987D01*
X30319165Y-19998829D01*
G37*
G36*
X30969165Y-19998829D02*
G01*
X31016441Y-20013170D01*
X31016444Y-20013171D01*
X31060013Y-20036459D01*
X31098201Y-20067799D01*
X31129541Y-20105987D01*
X31152829Y-20149556D01*
X31152830Y-20149559D01*
X31167171Y-20196835D01*
X31170800Y-20233683D01*
X31170800Y-20858317D01*
X31167171Y-20895165D01*
X31152830Y-20942440D01*
X31152829Y-20942444D01*
X31129541Y-20986013D01*
X31098203Y-21024197D01*
X31098201Y-21024198D01*
X31098200Y-21024200D01*
X31060011Y-21055541D01*
X31038226Y-21067185D01*
X31016443Y-21078829D01*
X31016440Y-21078830D01*
X30969164Y-21093171D01*
X30920000Y-21098013D01*
X30870835Y-21093171D01*
X30823559Y-21078830D01*
X30823556Y-21078829D01*
X30779987Y-21055541D01*
X30741803Y-21024203D01*
X30741802Y-21024201D01*
X30741800Y-21024200D01*
X30710459Y-20986011D01*
X30687172Y-20942444D01*
X30687171Y-20942443D01*
X30687170Y-20942440D01*
X30672829Y-20895164D01*
X30669200Y-20858316D01*
X30669201Y-20233683D01*
X30672830Y-20196835D01*
X30687171Y-20149559D01*
X30687172Y-20149556D01*
X30710460Y-20105987D01*
X30741800Y-20067799D01*
X30779988Y-20036459D01*
X30823557Y-20013171D01*
X30823560Y-20013170D01*
X30870836Y-19998829D01*
X30920000Y-19993987D01*
X30969165Y-19998829D01*
G37*
G36*
X31619165Y-19998829D02*
G01*
X31666441Y-20013170D01*
X31666444Y-20013171D01*
X31710013Y-20036459D01*
X31748201Y-20067799D01*
X31779541Y-20105987D01*
X31802829Y-20149556D01*
X31802830Y-20149559D01*
X31817171Y-20196835D01*
X31820800Y-20233683D01*
X31820800Y-20858317D01*
X31817171Y-20895165D01*
X31802830Y-20942440D01*
X31802829Y-20942444D01*
X31779541Y-20986013D01*
X31748203Y-21024197D01*
X31748201Y-21024198D01*
X31748200Y-21024200D01*
X31710011Y-21055541D01*
X31688226Y-21067185D01*
X31666443Y-21078829D01*
X31666440Y-21078830D01*
X31619164Y-21093171D01*
X31570000Y-21098013D01*
X31520835Y-21093171D01*
X31473559Y-21078830D01*
X31473556Y-21078829D01*
X31429987Y-21055541D01*
X31391803Y-21024203D01*
X31391802Y-21024201D01*
X31391800Y-21024200D01*
X31360459Y-20986011D01*
X31337172Y-20942444D01*
X31337171Y-20942443D01*
X31337170Y-20942440D01*
X31322829Y-20895164D01*
X31319200Y-20858316D01*
X31319201Y-20233683D01*
X31322830Y-20196835D01*
X31337171Y-20149559D01*
X31337172Y-20149556D01*
X31360460Y-20105987D01*
X31391800Y-20067799D01*
X31429988Y-20036459D01*
X31473557Y-20013171D01*
X31473560Y-20013170D01*
X31520836Y-19998829D01*
X31570000Y-19993987D01*
X31619165Y-19998829D01*
G37*
G36*
X32269165Y-19998829D02*
G01*
X32316441Y-20013170D01*
X32316444Y-20013171D01*
X32360013Y-20036459D01*
X32398201Y-20067799D01*
X32429541Y-20105987D01*
X32452829Y-20149556D01*
X32452830Y-20149559D01*
X32467171Y-20196835D01*
X32470800Y-20233683D01*
X32470800Y-20858317D01*
X32467171Y-20895165D01*
X32452830Y-20942440D01*
X32452829Y-20942444D01*
X32429541Y-20986013D01*
X32398203Y-21024197D01*
X32398201Y-21024198D01*
X32398200Y-21024200D01*
X32360011Y-21055541D01*
X32338226Y-21067185D01*
X32316443Y-21078829D01*
X32316440Y-21078830D01*
X32269164Y-21093171D01*
X32220000Y-21098013D01*
X32170835Y-21093171D01*
X32123559Y-21078830D01*
X32123556Y-21078829D01*
X32079987Y-21055541D01*
X32041803Y-21024203D01*
X32041802Y-21024201D01*
X32041800Y-21024200D01*
X32010459Y-20986011D01*
X31987172Y-20942444D01*
X31987171Y-20942443D01*
X31987170Y-20942440D01*
X31972829Y-20895164D01*
X31969200Y-20858316D01*
X31969201Y-20233683D01*
X31972830Y-20196835D01*
X31987171Y-20149559D01*
X31987172Y-20149556D01*
X32010460Y-20105987D01*
X32041800Y-20067799D01*
X32079988Y-20036459D01*
X32123557Y-20013171D01*
X32123560Y-20013170D01*
X32170836Y-19998829D01*
X32220000Y-19993987D01*
X32269165Y-19998829D01*
G37*
G36*
X27719165Y-19998829D02*
G01*
X27766441Y-20013170D01*
X27766444Y-20013171D01*
X27810013Y-20036459D01*
X27848201Y-20067799D01*
X27879541Y-20105987D01*
X27902829Y-20149556D01*
X27902830Y-20149559D01*
X27917171Y-20196835D01*
X27920800Y-20233683D01*
X27920800Y-20858317D01*
X27917171Y-20895165D01*
X27902830Y-20942440D01*
X27902829Y-20942444D01*
X27879541Y-20986013D01*
X27848203Y-21024197D01*
X27848201Y-21024198D01*
X27848200Y-21024200D01*
X27810011Y-21055541D01*
X27788226Y-21067185D01*
X27766443Y-21078829D01*
X27766440Y-21078830D01*
X27719164Y-21093171D01*
X27670000Y-21098013D01*
X27620835Y-21093171D01*
X27573559Y-21078830D01*
X27573556Y-21078829D01*
X27529987Y-21055541D01*
X27491803Y-21024203D01*
X27491802Y-21024201D01*
X27491800Y-21024200D01*
X27460459Y-20986011D01*
X27437172Y-20942444D01*
X27437171Y-20942443D01*
X27437170Y-20942440D01*
X27422829Y-20895164D01*
X27419200Y-20858316D01*
X27419201Y-20233683D01*
X27422830Y-20196835D01*
X27437171Y-20149559D01*
X27437172Y-20149556D01*
X27460460Y-20105987D01*
X27491800Y-20067799D01*
X27529988Y-20036459D01*
X27573557Y-20013171D01*
X27573560Y-20013170D01*
X27620836Y-19998829D01*
X27670000Y-19993987D01*
X27719165Y-19998829D01*
G37*
M02*
